<?xml version="1.0" encoding="UTF-8"?>
<svg version="1.1" xmlns="http://www.w3.org/2000/svg" width="724" height="720">
<path d="M0 0 C238.92 0 477.84 0 724 0 C724 237.6 724 475.2 724 720 C485.08 720 246.16 720 0 720 C0 482.4 0 244.8 0 0 Z " fill="#574138" transform="translate(0,0)"/>
<path d="M0 0 C105.93 0 211.86 0 321 0 C321.20165675 102.51780807 321.20165675 102.51780807 321.24414062 145.24023438 C321.25393058 155.01977581 321.26403315 164.79931685 321.2746582 174.57885742 C321.27597695 175.80463058 321.27729569 177.03040375 321.2786544 178.29332155 C321.30042442 198.10457059 321.33985637 217.91574736 321.38576398 237.72695348 C321.43245642 258.04571643 321.46028011 278.36444145 321.47044247 298.68325585 C321.47731661 311.2296882 321.49905843 323.77591639 321.53958233 336.32228591 C321.56593171 344.91586032 321.57401876 353.50932857 321.56750689 362.10294048 C321.5642918 367.06738057 321.56935595 372.03146295 321.59602737 376.99584007 C321.62023881 381.53527565 321.62166709 386.07411072 321.60449447 390.6135731 C321.60237001 392.2610031 321.60881515 393.90846956 321.62441591 395.55582706 C321.64431599 397.78574911 321.633776 400.01346798 321.61523914 402.24335194 C321.61713775 403.4846577 321.61903635 404.72596346 321.62099248 406.00488454 C321 409 321 409 318.63635224 410.85588425 C315.86808901 412.05724631 313.12680125 413.08672976 310.25 414 C309.19167969 414.3403125 308.13335938 414.680625 307.04296875 415.03125 C306.03878906 415.3509375 305.03460937 415.670625 304 416 C302.51998522 416.49748396 301.0407301 416.99723782 299.5625 417.5 C271.93075095 426.66106375 243.97646649 432.21906341 214.8125 432.25 C213.69107605 432.25200912 213.69107605 432.25200912 212.54699707 432.25405884 C199.50818898 432.24901582 186.85167761 431.31165079 174 429 C172.13214844 428.67515625 172.13214844 428.67515625 170.2265625 428.34375 C166.78103385 427.66910103 163.40122422 426.87135777 160 426 C158.85313721 425.70851074 158.85313721 425.70851074 157.68310547 425.41113281 C107.65597874 412.49654752 66.45864474 382.60480956 39.76953125 338.0703125 C16.39263263 297.50907118 10.91057067 248.82791575 22.578125 203.640625 C31.13993721 172.47484283 45.04857695 144.12666167 61.32910156 116.30981445 C69.8860664 101.67614155 76.17773386 87.73947732 72.19140625 70.50390625 C66.93547297 55.35445149 55.58641571 44.28189868 42.875 35.125 C42.0396875 34.51567627 41.204375 33.90635254 40.34375 33.27856445 C35.61155289 29.83998623 30.83188698 26.48407517 26 23.1875 C16.55662189 16.70416553 7.69919833 9.51664408 0 1 C0 0.67 0 0.34 0 0 Z " fill="#7A6153" transform="translate(403,0)"/>
<path d="M0 0 C24.66649964 2.34919044 24.66649964 2.34919044 31.6875 3.6875 C33.016604 3.93741699 33.016604 3.93741699 34.37255859 4.19238281 C85.51490067 14.2383582 134.36436161 38.25673049 164.25 82.375 C184.37157417 113.08583072 189.66634709 146.43371078 191.4375 182.4375 C191.56229427 184.88683142 191.68771244 187.33613112 191.8137207 189.78540039 C192.00985735 193.602393 192.20537173 197.41941004 192.39848328 201.23655701 C192.8638234 210.42976965 193.35465163 219.6213704 193.859375 228.8125 C193.99943279 231.37312812 194.13948816 233.93375637 194.27954102 236.49438477 C194.48186111 240.19071781 194.68470465 243.88701767 194.88937378 247.58322144 C195.07826221 251.00197577 195.26407036 254.42088511 195.44921875 257.83984375 C195.50531311 258.84059937 195.56140747 259.84135498 195.61920166 260.87243652 C195.66969666 261.81421753 195.72019165 262.75599854 195.7722168 263.72631836 C195.81646286 264.53225937 195.86070892 265.33820038 195.90629578 266.16856384 C196.03674591 270.1103416 196 274.05606426 196 278 C131.32 278 66.64 278 0 278 C0 186.26 0 94.52 0 0 Z " fill="#695545" transform="translate(0,442)"/>
<path d="M0 0 C38.94 0 77.88 0 118 0 C118 50.82 118 101.64 118 154 C101.65290098 152.83235007 101.65290098 152.83235007 95.3125 150.9375 C94.56830811 150.72125977 93.82411621 150.50501953 93.05737305 150.28222656 C63.39202619 141.30117365 37.43655427 124.55830199 20.06933594 98.59423828 C19.17222089 97.25675854 18.24922275 95.9366899 17.3203125 94.62109375 C8.9336551 81.95044108 4.12231459 65.92636131 2 51 C1.8246875 49.77539062 1.649375 48.55078125 1.46875 47.2890625 C0.83927109 42.1037687 0.6442572 36.90388259 0.4375 31.6875 C0.39431641 30.73810547 0.35113281 29.78871094 0.30664062 28.81054688 C-0.08986299 19.18746706 0 9.65867464 0 0 Z " fill="#6F5842" transform="translate(606,0)"/>
<path d="M0 0 C12.54 0 25.08 0 38 0 C38.10957031 2.88363281 38.21914063 5.76726563 38.33203125 8.73828125 C38.44859775 11.60159966 38.56897779 14.46473487 38.68969727 17.32788086 C38.77015958 19.28345091 38.84679833 21.23918289 38.91918945 23.19506836 C39.53794247 39.79898541 40.32076771 56.75524749 46.3125 72.4375 C46.61881348 73.26967041 46.92512695 74.10184082 47.24072266 74.95922852 C58.40800111 104.68176999 80.18423658 127.66477597 109.06201172 140.93408203 C124.28138771 147.61693715 139.56661056 151.65237294 156 154 C156 170.17 156 186.34 156 203 C107.94616012 197.34660707 62.307637 181.03584332 30.98046875 142.36328125 C-1.00913339 101.14887299 1.87378196 49.49575107 0 0 Z " fill="#7F6B4E" transform="translate(568,0)"/>
<path d="M0 0 C29.07402934 4.84567156 54.4369462 16.08509803 73 40 C92.59805453 68.17220338 93 100.8425487 93 134 C62.31 134 31.62 134 0 134 C0 89.78 0 45.56 0 0 Z " fill="#59402E" transform="translate(0,586)"/>
<path d="M0 0 C5.87821722 2.43730958 10.24851049 7.89667222 12.8125 13.625 C14.4241586 18.2055034 15.1790954 22.4607853 15.3125 27.3125 C15.36857422 28.63701172 15.36857422 28.63701172 15.42578125 29.98828125 C15.00947967 32.93294654 14.4503618 34.07998474 12.984375 36.55859375 C10.04286467 42.07939159 10.68108442 47.65222682 10.9375 53.75 C11.45058369 66.86043694 8.97643513 77.38705958 3.9375 89.4375 C3.58623047 90.29537109 3.23496094 91.15324219 2.87304688 92.03710938 C2.20750792 93.66132637 1.53895735 95.28431423 0.86669922 96.90576172 C-0.10872205 99.26270921 -1.06021645 101.62862907 -2 104 C4.04733442 101.24830286 9.08488072 97.51544177 14.125 93.25 C14.69814941 92.77336914 15.27129883 92.29673828 15.86181641 91.80566406 C17.64523197 90.26333326 19.33074489 88.66527456 21 87 C21.96305054 86.0399707 21.96305054 86.0399707 22.94555664 85.06054688 C28.56443156 78.76867108 29.05060744 73.23243508 29.1875 65 C29.66923551 47.12453761 29.66923551 47.12453761 36.625 40.5 C41.18014624 37.62306554 44.67945052 37.5194906 50 38 C55.22130472 39.65341316 58.45441249 41.82872058 62 46 C64.14409676 52.43229029 63.3354984 57.92859838 60.37109375 63.8984375 C55.07365066 72.01816509 44.63811536 75.19371011 35.703125 77.625 C28.92531951 79.57700798 25.40486261 84.75797877 21 90 C15.96189505 95.74874291 10.52899765 99.85913544 4.01098633 103.76782227 C-4.98917747 109.22747582 -7.68769592 115.226907 -11.3125 124.8125 C-11.76689453 125.98232422 -12.22128906 127.15214844 -12.68945312 128.35742188 C-13.80483968 131.23394509 -14.90783891 134.11459624 -16 137 C-14.98808594 136.35160156 -13.97617187 135.70320312 -12.93359375 135.03515625 C-9.25974133 132.92987346 -6.31670962 132.58584702 -2.0625 132.4375 C2.17370428 131.93832943 4.32940308 131.61105794 7.5078125 128.71484375 C9.55070068 125.89130818 11.31752544 123.05077696 13 120 C16.89087728 113.28678487 21.30096959 106.56634347 29 104 C33.19171681 103.60455502 35.48075302 103.73039099 39.25 105.6875 C42.87793916 108.73826702 44.70396692 110.67559214 45.31640625 115.484375 C45.54586509 120.84334913 45.22961328 125.62076878 42.5390625 130.34375 C39.46192613 133.65518609 35.25008507 134.79444702 31 136 C30.401875 136.19335938 29.80375 136.38671875 29.1875 136.5859375 C25.80717328 137.22578506 22.42737353 137.18439549 19 137.1875 C18.2884375 137.19974609 17.576875 137.21199219 16.84375 137.22460938 C12.95908013 137.23548065 10.36659732 136.89233575 7 135 C0.3475402 134.11530327 -5.95179913 135.12603221 -12 138 C-13.010625 138.46664062 -14.02125 138.93328125 -15.0625 139.4140625 C-19.43662296 143.2646867 -20.01261671 147.57083635 -21.25 153.125 C-21.61351562 154.61773438 -21.61351562 154.61773438 -21.984375 156.140625 C-22.69209447 159.0868919 -23.35433413 162.0395693 -24 165 C-24.19577637 165.87479004 -24.39155273 166.74958008 -24.59326172 167.65087891 C-25.77067191 173.15220818 -26.38599016 178.50826884 -26.625 184.125 C-26.68300781 185.27355469 -26.68300781 185.27355469 -26.7421875 186.4453125 C-26.83474966 188.29655565 -26.91836801 190.14824268 -27 192 C-26.53851562 191.40832031 -26.07703125 190.81664062 -25.6015625 190.20703125 C-21.99607887 185.83912321 -19.09691422 182.74915416 -13.8125 180.5625 C-8.69185903 178.29099616 -7.34089445 175.65794798 -5.19140625 170.625 C-1.55886597 162.62150142 4.35697494 157.14737794 12 153 C17.03903455 151.32032182 22.05140623 151.12935172 26.9375 153.3125 C29.30142681 155.24662194 30.78090352 156.93190465 31.40625 159.98046875 C31.65149012 165.7538299 30.37076682 168.8895985 26.63671875 173.28515625 C19.70837552 180.54420799 11.85895501 183.94127411 1.9375 184.1875 C-1.71619505 184.24942703 -3.79241645 183.68994588 -7 182 C-12.16260533 181.79754489 -14.87645483 183.39062614 -18.6875 186.625 C-24.64317636 192.41806404 -27.14537441 195.95506581 -27.26147461 204.19726562 C-27.24471262 207.46977727 -27.14130056 210.73046206 -27 214 C-27.99 214 -28.98 214 -30 214 C-31.76171875 211.83984375 -31.76171875 211.83984375 -33.6875 208.9375 C-37.29402082 203.78627449 -41.01805314 199.80972407 -46 196 C-46.78375 195.360625 -47.5675 194.72125 -48.375 194.0625 C-51.17597831 192.92877069 -52.30976767 193.02725513 -55.25 193.25 C-65.58478498 193.60690699 -77.92693169 187.09599036 -86 181 C-88.32833141 177.32368724 -88.32262108 174.52649557 -87.7265625 170.3125 C-85.94707199 164.64874526 -80.94456133 161.31638373 -75.9375 158.5625 C-72.46863242 157.01855316 -69.82142135 156.33540498 -66 157 C-59.08985019 160.38456317 -55.88413165 166.30680355 -53.1875 173.25 C-51.47236134 178.75193356 -51.73948234 184.2975579 -52 190 C-50.91332031 190.38478516 -50.91332031 190.38478516 -49.8046875 190.77734375 C-46.84293485 192.0684699 -44.65614204 193.56103785 -42.125 195.5625 C-41.32320312 196.18253906 -40.52140625 196.80257812 -39.6953125 197.44140625 C-36.0006196 200.94868719 -33.03870388 204.92295332 -30 209 C-30.00523682 208.33057373 -30.01047363 207.66114746 -30.01586914 206.97143555 C-30.03692471 203.87680029 -30.0497497 200.78218019 -30.0625 197.6875 C-30.07087891 196.63498047 -30.07925781 195.58246094 -30.08789062 194.49804688 C-30.11111658 186.94961244 -30.06601528 179.29790169 -28.57128906 171.86938477 C-27.58174401 166.72714969 -28.62001797 163.86554855 -30.88671875 159.37109375 C-32.41902137 156.107558 -33.28868577 152.74364059 -34.19140625 149.26171875 C-35.11082184 146.69002006 -36.13910129 144.99890794 -38 143 C-39.89517282 142.60101625 -41.79057008 142.2030444 -43.6875 141.8125 C-48.52718545 140.11206998 -52.17919259 136.31593726 -56 133 C-56.67675781 132.47921875 -57.35351562 131.9584375 -58.05078125 131.421875 C-63.08285833 127.49965646 -66.06639355 123.24587978 -67.44921875 116.95703125 C-67.80623833 112.85527296 -66.85235164 110.23482521 -64.4375 107.0625 C-62.10211222 104.67788859 -60.87762742 103.95694298 -57.625 102.8125 C-50.46624563 103.1827804 -45.29721927 106.84741297 -40.54296875 112.05859375 C-34.72429862 119.37980654 -34.61178423 126.11173208 -35.14672852 135.17285156 C-35.39466914 140.93820374 -34.35474476 143.18337862 -31 148 C-29.47998922 152.28112832 -28.22032704 156.62499773 -27 161 C-26.67725098 160.02651611 -26.35450195 159.05303223 -26.02197266 158.05004883 C-24.81957428 154.42469906 -23.61516356 150.80002046 -22.41015625 147.17553711 C-21.88975339 145.6093122 -21.36989015 144.04290788 -20.85058594 142.47631836 C-20.10234463 140.21941043 -19.35213958 137.96316329 -18.6015625 135.70703125 C-18.3712735 135.01100296 -18.1409845 134.31497467 -17.90371704 133.59785461 C-16.95908463 130.76363318 -15.99051227 127.97758252 -14.82568359 125.2253418 C-12.90620918 120.0520688 -15.30343545 114.75006596 -17.28125 109.89453125 C-18.85393157 105.74914777 -19.11080163 102.1937498 -19.0625 97.75 C-19.05347656 96.67234375 -19.04445313 95.5946875 -19.03515625 94.484375 C-19.02355469 93.66453125 -19.01195312 92.8446875 -19 92 C-19.6909375 91.74992188 -20.381875 91.49984375 -21.09375 91.2421875 C-24.44304723 89.81063304 -27.40340973 88.04228136 -30.5 86.125 C-31.6034375 85.44695312 -32.706875 84.76890625 -33.84375 84.0703125 C-39.39330771 80.43013232 -43.55476505 77.25769804 -46 71 C-46.64048309 65.78463771 -45.91803293 62.3770494 -43 58 C-39.25271307 54.34879735 -36.13271486 53.69013306 -31.0625 53.5 C-25.49419303 53.71416565 -22.30481004 54.42792359 -18 58 C-14.37131098 64.65259654 -13.81901922 70.91701091 -13.8125 78.375 C-13.80025391 79.10460937 -13.78800781 79.83421875 -13.77539062 80.5859375 C-13.76247568 85.40751698 -14.55752157 89.36067748 -16 94 C-17.08760799 101.92942105 -14.82777521 108.65283406 -12 116 C-9.41290216 112.84195971 -7.82951181 109.65118549 -6.22265625 105.90625 C-5.70896484 104.71 -5.19527344 103.51375 -4.66601562 102.28125 C-4.27023315 101.34732422 -4.27023315 101.34732422 -3.86645508 100.39453125 C-3.07544542 98.53050607 -2.27381068 96.67133929 -1.47070312 94.8125 C5.59843523 78.68863276 5.59843523 78.68863276 8.1328125 61.43359375 C8.13410156 60.61826172 8.13539063 59.80292969 8.13671875 58.96289062 C8.13285156 58.12951172 8.12898437 57.29613281 8.125 56.4375 C8.12886719 55.60025391 8.13273438 54.76300781 8.13671875 53.90039062 C8.2458447 47.84960735 8.2458447 47.84960735 7 42 C5.21918085 40.4259616 5.21918085 40.4259616 2.9375 39.25 C-4.98037178 34.32024225 -11.60275603 27.19942373 -14 18 C-14.6959161 12.73713451 -14.93456487 8.57909236 -12.1875 3.9375 C-7.965778 0.19826052 -5.61105733 -0.48371184 0 0 Z " fill="#C2AD94" transform="translate(643,506)"/>
<path d="M0 0 C2.59423828 -0.36474609 2.59423828 -0.36474609 6 0 C8.4291363 1.8810697 10.38919855 3.64015348 12.4921875 5.8359375 C13.08299103 6.43048737 13.67379456 7.02503723 14.28250122 7.63760376 C15.52484349 8.8933623 16.75998311 10.15628233 17.98828125 11.42578125 C19.87519386 13.37520028 21.78281059 15.30227321 23.6953125 17.2265625 C24.89969782 18.44928069 26.10286655 19.67319868 27.3046875 20.8984375 C28.16234207 21.76884171 28.16234207 21.76884171 29.037323 22.65682983 C33 26.76560054 33 26.76560054 33 29 C33.66 29 34.32 29 35 29 C41.01396906 34.8561221 45.37952182 42.50545584 49.8125 49.5625 C50.65711792 50.89124146 50.65711792 50.89124146 51.51879883 52.24682617 C56.12405991 59.70279849 59.91773027 67.00624336 59 76 C57 78 57 78 54.375 78.4375 C46.38449065 77.40169323 42.15295273 72.3260379 37.4375 66.25 C36.09588745 64.48489048 34.76810813 62.7108559 33.45019531 60.92797852 C31.88622008 58.848734 30.26155718 56.82493219 28.63671875 54.79296875 C24.48252072 49.4642291 20.92933478 43.80217272 17.375 38.0625 C16.73304687 37.04220703 16.09109375 36.02191406 15.4296875 34.97070312 C11.58812776 28.80295301 8.10835626 22.56865339 5 16 C6.45483723 28.33929918 8.06415723 40.1763412 12 52 C12.31710938 53.24716797 12.31710938 53.24716797 12.640625 54.51953125 C13.24363254 56.95673335 13.24363254 56.95673335 15 60 C16.92666046 60.74420361 18.85738769 61.48043003 20.81152344 62.14916992 C24.37422926 63.53426918 27.37400718 65.64107108 30.5 67.8125 C31.15798584 68.26262451 31.81597168 68.71274902 32.49389648 69.17651367 C34.33547374 70.44232715 36.1681211 71.72021633 38 73 C39.11568359 73.75796875 39.11568359 73.75796875 40.25390625 74.53125 C44.86605886 77.79860649 49.05202314 81.60020413 53.25 85.375 C53.85336182 85.90456299 54.45672363 86.43412598 55.07836914 86.97973633 C61.58956678 92.95673776 65.74877982 100.89185641 66.1875 109.8125 C66 113 66 113 65 114 C54.92540842 114 47.79849564 108.96102765 40.75 102.0625 C37.60260954 98.74132724 34.59248311 95.30092072 31.609375 91.83203125 C29.50760458 89.43948191 27.28559058 87.21633026 25 85 C26.84570844 92.17235823 29.564702 98.65174524 32.79296875 105.3125 C34 108 34 108 34 110 C35.134375 110.061875 36.26875 110.12375 37.4375 110.1875 C42.72505515 110.87275233 46.55368494 113.17052678 51 116 C51.98742187 116.62648438 52.97484375 117.25296875 53.9921875 117.8984375 C63.89100181 124.34130666 74.07582025 131.22746076 78 143 C78.06740865 144.56118428 78.08514456 146.1250252 78.0625 147.6875 C78.05347656 148.49574219 78.04445313 149.30398437 78.03515625 150.13671875 C78.02355469 150.75160156 78.01195313 151.36648437 78 152 C68.89872809 152.31587929 63.84885033 148.62349692 57 143 C55.67151309 141.99357052 54.34003446 140.99100223 53 140 C53.61488281 140.90621094 54.22976562 141.81242188 54.86328125 142.74609375 C62.77660709 154.58105338 65.55885863 162.4489771 65 177 C62.76171875 177.76171875 62.76171875 177.76171875 60 178 C57.83203125 176.26953125 57.83203125 176.26953125 55.8125 173.8125 C55.13832031 173.01457031 54.46414062 172.21664062 53.76953125 171.39453125 C52.22840114 169.30907262 51.05712296 167.35819738 50 165 C49.87882812 165.61488281 49.75765625 166.22976562 49.6328125 166.86328125 C49.46523437 167.67152344 49.29765625 168.47976562 49.125 169.3125 C48.96257812 170.11300781 48.80015625 170.91351563 48.6328125 171.73828125 C48 174 48 174 46 177 C43.35130968 176.63308186 42.21789381 176.23353212 40.3671875 174.25 C39.87476563 173.5075 39.38234375 172.765 38.875 172 C38.37742188 171.278125 37.87984375 170.55625 37.3671875 169.8125 C33.40436033 161.66039839 33.41863664 152.39293844 32.875 143.5 C32.7871448 142.15900927 32.69917208 140.81802623 32.61108398 139.47705078 C32.07317678 130.97784571 31.86595576 122.5632993 32.22265625 114.0546875 C31.97743053 110.69036272 31.29519389 109.40905468 29 107 C29.24363281 108.18529297 29.24363281 108.18529297 29.4921875 109.39453125 C30.12014003 113.85299424 30.14563726 118.19201756 30.125 122.6875 C30.13080078 123.96850586 30.13080078 123.96850586 30.13671875 125.27539062 C30.13542969 126.09587891 30.13414063 126.91636719 30.1328125 127.76171875 C30.13168457 128.50381592 30.13055664 129.24591309 30.12939453 130.01049805 C30 132 30 132 29 135 C25.63270879 134.43637615 24.19656513 133.57856805 22.125 130.875 C11.71742034 116.16174653 10.7344274 98.96989045 9.9375 81.625 C9.82142369 79.18232981 9.70320793 76.73981134 9.58070374 74.29745483 C9.50542757 72.78953235 9.43395327 71.28141356 9.3669281 69.77310181 C9.18687308 66.09326959 8.8445281 62.58913498 8 59 C8.66 59 9.32 59 10 59 C8.35 53.06 6.7 47.12 5 41 C5.05220703 44.49400391 5.05220703 44.49400391 5.10546875 48.05859375 C5.12903485 50.37897524 5.14715351 52.69934211 5.16479492 55.01977539 C5.17964641 56.60121883 5.19993305 58.18262295 5.22631836 59.76391602 C5.6745847 87.37184909 5.6745847 87.37184909 0 97 C-2.36328125 96.76953125 -2.36328125 96.76953125 -5 96 C-11.84035745 86.14244561 -11.41644051 70.93021749 -11.4375 59.5 C-11.43956451 58.83746216 -11.44162903 58.17492432 -11.4437561 57.49230957 C-11.43366769 39.21209849 -8.0343285 21.54685553 -3 4 C-2.34 4 -1.68 4 -1 4 C-0.67 5.98 -0.34 7.96 0 10 C-0.66 10 -1.32 10 -2 10 C-2.0424585 10.57975586 -2.08491699 11.15951172 -2.12866211 11.75683594 C-2.53546853 16.52940427 -3.17694908 21.14506259 -4.19140625 25.828125 C-6.87130075 38.23522327 -8.48656214 50.25532488 -8.5 62.9375 C-8.50588135 64.16178711 -8.5117627 65.38607422 -8.51782227 66.64746094 C-8.40462395 74.87658434 -7.74274378 83.51451245 -4 91 C-3.01 91 -2.02 91 -1 91 C6.4406948 62.07872794 1.36153951 29.49941918 0 0 Z " fill="#A36227" transform="translate(25,0)"/>
<path d="M0 0 C6.48800679 3.31020755 12.96939031 9.87670751 15.5703125 16.8125 C16.94550426 23.81347625 17.0829061 31.49027796 14 38 C9.98006144 38.71465574 7.94540043 38.55124981 4.3671875 36.46484375 C1.50113077 34.39313979 -1.25839791 32.23346032 -4 30 C-4.7734375 29.40316406 -5.546875 28.80632813 -6.34375 28.19140625 C-11.61240036 23.93520176 -14.98239869 19.65954283 -16.4453125 12.9609375 C-16.82658715 8.66745337 -15.77608435 6.24640032 -13.125 3.0625 C-8.98685229 -1.32553586 -5.80036774 -1.37119387 0 0 Z " fill="#C3AE94" transform="translate(592,610)"/>
<path d="M0 0 C0.33 0 0.66 0 1 0 C2.82849086 17.35964812 -1.51054222 29.93205354 -8.13330078 45.90576172 C-9.10872205 48.26270921 -10.06021645 50.62862907 -11 53 C0.94724865 47.5636858 11.71550043 37.84459334 19 27 C20.485 27.495 20.485 27.495 22 28 C18.79909451 31.52504782 15.5832243 35.03520841 12.34960938 38.53027344 C11.28704638 39.68740608 10.24177613 40.86041926 9.203125 42.0390625 C5.08039497 46.52306268 0.24656811 49.59407157 -4.9387207 52.7175293 C-13.95504929 58.21755239 -16.67379954 64.19015878 -20.3125 73.8125 C-20.76689453 74.98232422 -21.22128906 76.15214844 -21.68945312 77.35742188 C-22.80483968 80.23394509 -23.90783891 83.11459624 -25 86 C-23.91589844 85.33484375 -22.83179688 84.6696875 -21.71484375 83.984375 C-18.80652818 82.1999626 -18.16598801 81.98792814 -14.5625 82.25 C-13.2940625 82.62125 -13.2940625 82.62125 -12 83 C-12 83.33 -12 83.66 -12 84 C-12.58007812 84.17015625 -13.16015625 84.3403125 -13.7578125 84.515625 C-14.53898438 84.75796875 -15.32015625 85.0003125 -16.125 85.25 C-16.89070312 85.48203125 -17.65640625 85.7140625 -18.4453125 85.953125 C-24.37432454 88.2905573 -24.37432454 88.2905573 -28.00634766 93.31835938 C-28.87756143 96.23586433 -29.587918 99.15315464 -30.25 102.125 C-30.49234375 103.12015625 -30.7346875 104.1153125 -30.984375 105.140625 C-31.69209447 108.0868919 -32.35433413 111.0395693 -33 114 C-33.19577637 114.87479004 -33.39155273 115.74958008 -33.59326172 116.65087891 C-34.77067191 122.15220818 -35.38599016 127.50826884 -35.625 133.125 C-35.66367187 133.89070312 -35.70234375 134.65640625 -35.7421875 135.4453125 C-35.83474966 137.29655565 -35.91836801 139.14824268 -36 141 C-35.50371094 140.39671875 -35.00742187 139.7934375 -34.49609375 139.171875 C-30.38036687 134.32984338 -26.92241918 130.45836268 -21 128 C-18.0625 128.25 -18.0625 128.25 -16 129 C-16.515625 129.2475 -17.03125 129.495 -17.5625 129.75 C-18.7690625 130.36875 -18.7690625 130.36875 -20 131 C-21.6396875 131.804375 -21.6396875 131.804375 -23.3125 132.625 C-28.67597156 135.69974878 -33.89999716 141.11593407 -36 147 C-36.13997227 149.78824758 -36.1888913 152.46827116 -36.125 155.25 C-36.11597656 155.99507812 -36.10695313 156.74015625 -36.09765625 157.5078125 C-36.07418358 159.33868059 -36.03831525 161.16938238 -36 163 C-36.99 163 -37.98 163 -39 163 C-40.76171875 160.83984375 -40.76171875 160.83984375 -42.6875 157.9375 C-46.29760547 152.76501003 -50.14055853 148.95635943 -55 145 C-56.35010281 143.68364976 -57.69414946 142.36026098 -59 141 C-54.20224044 141.46149048 -51.91334365 143.4533701 -48.4375 146.6875 C-47.50808594 147.53699219 -46.57867188 148.38648438 -45.62109375 149.26171875 C-42.94754105 152.05480436 -41.03370996 154.73170846 -39 158 C-39.00785522 156.9958606 -39.00785522 156.9958606 -39.01586914 155.97143555 C-39.03692471 152.87680029 -39.0497497 149.78218019 -39.0625 146.6875 C-39.07087891 145.63498047 -39.07925781 144.58246094 -39.08789062 143.49804688 C-39.11111658 135.94961244 -39.06601528 128.29790169 -37.57128906 120.86938477 C-36.58137786 115.72524698 -37.62255559 112.86439131 -39.88671875 108.3671875 C-41.06489263 105.86201777 -41.82299128 103.41539507 -42.5625 100.75 C-43.59371015 97.11243452 -44.80996962 94.12861483 -47 91 C-46.01 90.01 -46.01 90.01 -45 89 C-41.59543768 93.82312995 -39.5033487 98.12005474 -37.828125 103.80078125 C-37.48168945 104.96391846 -37.13525391 106.12705566 -36.77832031 107.32543945 C-36.52147461 108.20804443 -36.26462891 109.09064941 -36 110 C-35.67725098 109.02651611 -35.35450195 108.05303223 -35.02197266 107.05004883 C-33.81957428 103.42469906 -32.61516356 99.80002046 -31.41015625 96.17553711 C-30.88975339 94.6093122 -30.36989015 93.04290788 -29.85058594 91.47631836 C-29.10234463 89.21941043 -28.35213958 86.96316329 -27.6015625 84.70703125 C-27.3712735 84.01100296 -27.1409845 83.31497467 -26.90371704 82.59785461 C-25.95908463 79.76363318 -24.99051227 76.97758252 -23.82568359 74.2253418 C-21.90620918 69.0520688 -24.30343545 63.75006596 -26.28125 58.89453125 C-27.79067375 54.91588713 -28.11323642 51.51185917 -28.0625 47.25 C-28.05347656 46.26515625 -28.04445313 45.2803125 -28.03515625 44.265625 C-28.02355469 43.51796875 -28.01195312 42.7703125 -28 42 C-27.34 42.33 -26.68 42.66 -26 43 C-25.47265625 45.625 -25.47265625 45.625 -25.0625 49 C-24.28060217 54.67345064 -22.99749352 59.64308555 -21 65 C-18.41290216 61.84195971 -16.82951181 58.65118549 -15.22265625 54.90625 C-14.70896484 53.71 -14.19527344 52.51375 -13.66601562 51.28125 C-13.40216064 50.65863281 -13.13830566 50.03601563 -12.86645508 49.39453125 C-12.07544542 47.53050607 -11.27381068 45.67133929 -10.47070312 43.8125 C-5.64850011 32.51442234 -1.5961603 22.07220944 -0.75 9.75 C-0.67265625 8.80253906 -0.5953125 7.85507812 -0.515625 6.87890625 C-0.33039019 4.58662544 -0.15862425 2.29424824 0 0 Z " fill="#B7A087" transform="translate(652,557)"/>
<path d="M0 0 C7.2551617 -1.20642584 14.87112534 -2.22438058 22 0 C31.05582378 6.91107505 36.47403572 20.42210716 40 31 C40.12781786 33.67394964 40.04391871 36.32095857 40 39 C33.0399741 39 27.4095404 33.27504177 22.51464844 28.57324219 C19.18832318 25.1832552 16.07545713 21.61702518 13 18 C12.15953125 17.02160156 11.3190625 16.04320313 10.453125 15.03515625 C6.3993007 10.20633613 3.03232828 5.51517426 0 0 Z " fill="#A46227" transform="translate(46,0)"/>
<path d="M0 0 C13.71792274 13.31393782 16.65000546 38.4578021 16.9921875 56.6875 C16.99605469 58.3271875 16.99605469 58.3271875 17 60 C15.68 60 14.36 60 13 60 C1.82917104 47.34353649 -0.34847281 28.93066224 -0.125 12.875 C-0.11597656 11.63234375 -0.10695312 10.3896875 -0.09765625 9.109375 C-0.07429729 6.07270996 -0.04154283 3.03646147 0 0 Z " fill="#60473A" transform="translate(37,69)"/>
<path d="M0 0 C3.29593027 1.3845292 4.86702646 2.79685517 6.84765625 5.75390625 C7.36481201 6.51751465 7.88196777 7.28112305 8.41479492 8.06787109 C8.9585376 8.89109863 9.50228027 9.71432617 10.0625 10.5625 C10.63395752 11.41150879 11.20541504 12.26051758 11.79418945 13.13525391 C15.96488754 19.3574658 19.99958863 25.6641996 24.02978516 31.9777832 C28.95492889 39.6132934 34.45870186 46.76254924 40.28515625 53.734375 C42 56 42 56 42 58 C45.50538557 59.96301592 49.13351728 60.95902388 53 62 C53.33 60.35 53.66 58.7 54 57 C56.44897847 60.67346771 56.31537716 62.66356399 56 67 C54 69 54 69 51.375 69.4375 C43.38449065 68.40169323 39.15295273 63.3260379 34.4375 57.25 C33.09588745 55.48489048 31.76810813 53.7108559 30.45019531 51.92797852 C28.88622008 49.848734 27.26155718 47.82493219 25.63671875 45.79296875 C21.48252072 40.4642291 17.92933478 34.80217272 14.375 29.0625 C13.73304687 28.04220703 13.09109375 27.02191406 12.4296875 25.97070312 C7.28562648 17.71174451 2.27948916 9.53240923 0 0 Z " fill="#A46327" transform="translate(28,9)"/>
<path d="M0 0 C2.87990761 2.79263768 5.59731901 5.65021333 8.21875 8.6875 C11.86942552 12.87775733 15.63050618 16.95185704 19.4375 21 C20.05431641 21.66 20.67113281 22.32 21.30664062 23 C25.05308343 27.00117677 25.05308343 27.00117677 28.95556641 30.84838867 C34.79307666 36.3808901 39.1082112 42.5987562 43.5 49.3125 C44.22703125 50.39595703 44.9540625 51.47941406 45.703125 52.59570312 C51 60.60573308 51 60.60573308 51 64 C47.09983854 63.77057874 44.66336806 63.52729256 41.5625 61.0625 C40.716875 60.051875 39.87125 59.04125 39 58 C38.43925781 57.33097656 37.87851563 56.66195312 37.30078125 55.97265625 C35.15048144 53.35129685 33.06911095 50.68596685 31 48 C30.58443848 47.46084961 30.16887695 46.92169922 29.74072266 46.36621094 C23.60653461 38.35281564 18.10500151 30.11009569 12.93676758 21.44287109 C9.72947973 16.09099654 6.29456868 11.09301687 2.4609375 6.1640625 C1.03369913 4.04991797 0.42140662 2.49427163 0 0 Z " fill="#60483A" transform="translate(30,7)"/>
<path d="M0 0 C4.95 0 9.9 0 15 0 C13.69193358 13.88238237 11.34519216 30.41705568 3 42 C1.515 42.495 1.515 42.495 0 43 C0 28.81 0 14.62 0 0 Z " fill="#5F473A" transform="translate(0,0)"/>
<path d="M0 0 C3.83642578 1.68066406 3.83642578 1.68066406 5.30859375 4.5546875 C7.74550443 11.72207186 9.89690487 18.92667502 11.8125 26.25 C12.03156006 27.06452637 12.25062012 27.87905273 12.47631836 28.71826172 C13.88552461 34.35395072 14.95881821 40.20532042 14 46 C12.47973633 48.29003906 12.47973633 48.29003906 11 50 C7.35815298 48.82940631 5.60431337 46.66858601 3.87890625 43.3125 C-1.11818087 30.16460855 0.36813029 13.83032594 0 0 Z " fill="#60473A" transform="translate(59,122)"/>
<path d="M0 0 C4.11389867 2.98695302 8.09807917 6.03056325 11.875 9.4375 C14.77879033 12.03383018 17.76853084 14.26342289 21 16.4375 C25.15216889 19.2754503 28.58221231 22.37865897 32.04296875 26.015625 C34.66809006 28.67742465 37.52527518 31.01450758 40.43359375 33.359375 C42.20967344 35.2196081 42.61242816 36.48897116 43 39 C41.62134409 38.59559427 40.2472278 38.17570763 38.875 37.75 C38.10929687 37.51796875 37.34359375 37.2859375 36.5546875 37.046875 C29.42816127 34.1265248 24.51775514 28.8311642 19.1875 23.4375 C18.39158447 22.63626709 17.59566895 21.83503418 16.77563477 21.00952148 C1.99743494 5.99230481 1.99743494 5.99230481 0 0 Z " fill="#614839" transform="translate(43,68)"/>
<path d="M0 0 C3.1256885 -0.49744667 5.88720252 -0.64101985 9 0 C11.69486544 2.22472615 13.32725015 4.96780125 15.125 7.9375 C16.14564802 9.50357454 17.16777288 11.06868764 18.19140625 12.6328125 C18.6723877 13.38852539 19.15336914 14.14423828 19.64892578 14.92285156 C21.77097281 18.18529755 24.1744273 21.1984546 26.59765625 24.23828125 C28.10420213 26.13090574 29.55620375 28.05922937 31 30 C30.67 30.66 30.34 31.32 30 32 C18.2181405 23.33768722 7.31220417 12.78486011 0 0 Z " fill="#614839" transform="translate(51,0)"/>
<path d="M0 0 C1.98 0.66 3.96 1.32 6 2 C6.33 4.31 6.66 6.62 7 9 C6.34 9 5.68 9 5 9 C7.19873097 18.97143781 10.71650721 29.46040043 19 36 C21.17346568 36.86119134 21.17346568 36.86119134 23 37 C23 38.65 23 40.3 23 42 C20.76171875 42.76171875 20.76171875 42.76171875 18 43 C15.83203125 41.26953125 15.83203125 41.26953125 13.8125 38.8125 C13.13832031 38.01457031 12.46414062 37.21664062 11.76953125 36.39453125 C10.22840114 34.30907262 9.05712296 32.35819738 8 30 C7.34 30.99 6.68 31.98 6 33 C5.90203125 32.25878906 5.8040625 31.51757812 5.703125 30.75390625 C4.63931962 23.2614149 3.14852115 15.99098376 1.32128906 8.65063477 C0.59101113 5.68776328 0 3.06499215 0 0 Z " fill="#A16127" transform="translate(67,135)"/>
<path d="M0 0 C0.66 0.66 1.32 1.32 2 2 C2.99 2 3.98 2 5 2 C5.53625 3.134375 6.0725 4.26875 6.625 5.4375 C8.22508276 8.66044249 10.02152998 11.60029413 12.0625 14.5625 C15.57444443 19.72817017 18.59014018 24.50845804 18 31 C12.5700717 30.13263727 10.11653342 26.22758457 7 22 C2.53869174 15.027746 0.93976918 8.16336809 0 0 Z " fill="#614839" transform="translate(71,141)"/>
<path d="M0 0 C0.66 0 1.32 0 2 0 C2.33 1.98 2.66 3.96 3 6 C2.34 6 1.68 6 1 6 C0.8453125 7.96066406 0.8453125 7.96066406 0.6875 9.9609375 C0.22058734 14.63499631 -0.52539339 19.23429398 -1.375 23.8515625 C-1.50479248 24.55923767 -1.63458496 25.26691284 -1.76831055 25.99603271 C-2.31091384 28.93726752 -2.85807313 31.87755179 -3.41601562 34.81591797 C-5.38284071 45.22098194 -6.58501021 55.41597167 -7 66 C-7.33 66 -7.66 66 -8 66 C-8.88815449 43.23045154 -6.31286129 21.90433922 0 0 Z " fill="#A16228" transform="translate(22,4)"/>
<path d="M0 0 C3.46393999 1.98901148 6.54478119 4.14812228 9.625 6.6875 C14.17883461 10.38791733 18.86715422 13.84389501 23.65234375 17.23828125 C25.63897084 18.72907795 27.39478686 20.10870927 29 22 C29 22.66 29 23.32 29 24 C21.12026157 23.07297195 16.04775564 17.36949336 10.46484375 12.21875 C8.79005072 10.71117085 7.06677125 9.25612201 5.3046875 7.8515625 C3.06782854 6.05449276 1.53094352 4.41727924 0 2 C0 1.34 0 0.68 0 0 Z " fill="#644939" transform="translate(67,120)"/>
<path d="M0 0 C0.66 0 1.32 0 2 0 C0.69193358 13.88238237 -1.65480784 30.41705568 -10 42 C-11.485 42.495 -11.485 42.495 -13 43 C-13 41.68 -13 40.36 -13 39 C-12.34 39 -11.68 39 -11 39 C-10.81824219 38.45472656 -10.63648438 37.90945312 -10.44921875 37.34765625 C-8 30 -8 30 -7.29980469 28.04443359 C-5.27652403 22.2700264 -3.9832319 16.51104983 -2.875 10.5 C-2.54248179 8.71810853 -2.2067251 6.93681726 -1.8671875 5.15625 C-1.72394043 4.38087891 -1.58069336 3.60550781 -1.43310547 2.80664062 C-1 1 -1 1 0 0 Z " fill="#9F6028" transform="translate(13,0)"/>
<path d="M0 0 C0.33 0 0.66 0 1 0 C2.0504616 9.9730571 2.24150185 18.32363555 -1 28 C-1.33 28.99 -1.66 29.98 -2 31 C-2.99 31.33 -3.98 31.66 -5 32 C-4.58427734 30.42025391 -4.58427734 30.42025391 -4.16015625 28.80859375 C-1.70225603 19.13822211 -0.29064404 9.98362269 0 0 Z " fill="#B29B83" transform="translate(652,557)"/>
<path d="M0 0 C0.33 0 0.66 0 1 0 C1.02505615 0.65484375 1.0501123 1.3096875 1.07592773 1.984375 C1.19292655 4.98973236 1.31517635 7.99485485 1.4375 11 C1.47681641 12.02996094 1.51613281 13.05992188 1.55664062 14.12109375 C1.79185439 19.80241075 2.19481377 25.37046268 3 31 C2.34 31.33 1.68 31.66 1 32 C-0.75523606 21.09142546 -1.08207557 10.99622738 0 0 Z " fill="#905B2D" transform="translate(15,54)"/>
<path d="M0 0 C5.02879703 6.7050627 5.02879703 6.7050627 4.7578125 9.48046875 C4.54898438 10.37378906 4.34015625 11.26710938 4.125 12.1875 C3.92132813 13.08855469 3.71765625 13.98960938 3.5078125 14.91796875 C3.34023438 15.60503906 3.17265625 16.29210937 3 17 C2.67 17 2.34 17 2 17 C1.34 11.39 0.68 5.78 0 0 Z " fill="#654939" transform="translate(53,104)"/>
<path d="M0 0 C0.99 0 1.98 0 3 0 C2.38487182 5.00890086 1.7282448 10.00632136 1 15 C0.67 15 0.34 15 0 15 C0 10.05 0 5.1 0 0 Z " fill="#A16128" transform="translate(0,0)"/>
<path d="M0 0 C0.33 0 0.66 0 1 0 C1.06058594 0.90363281 1.12117187 1.80726563 1.18359375 2.73828125 C1.26738281 3.91777344 1.35117187 5.09726562 1.4375 6.3125 C1.51871094 7.48425781 1.59992187 8.65601563 1.68359375 9.86328125 C1.8867371 13.02590958 1.8867371 13.02590958 3 16 C2.01 16.33 1.02 16.66 0 17 C0 11.39 0 5.78 0 0 Z " fill="#C4AD92" transform="translate(614,686)"/>
<path d="M0 0 C0.99 0.33 1.98 0.66 3 1 C1.02 3.31 -0.96 5.62 -3 8 C-3.99 7.67 -4.98 7.34 -6 7 C-4.02 4.69 -2.04 2.38 0 0 Z " fill="#B59D85" transform="translate(671,584)"/>
<path d="M0 0 C0 0.33 0 0.66 0 1 C-4.95 2.485 -4.95 2.485 -10 4 C-10 3.01 -10 2.02 -10 1 C-6.42181037 -1.33958553 -4.07775191 -0.9267618 0 0 Z " fill="#B19A82" transform="translate(640,640)"/>
<path d="M0 0 C3.28788824 3.11016455 5.83735988 6.01618925 8 10 C6.25 9.9375 6.25 9.9375 4 9 C1.99159505 6.29950956 0 3.44873267 0 0 Z " fill="#6C4C36" transform="translate(30,7)"/>
<path d="M0 0 C1.39195915 4.17587745 -0.17676781 6.13474776 -2 10 C-2.33 10 -2.66 10 -3 10 C-2.25 2.25 -2.25 2.25 0 0 Z " fill="#BCA58C" transform="translate(631,627)"/>
<path d="M0 0 C0.66 0.66 1.32 1.32 2 2 C1.96712417 4.72869407 1.43602229 7.2966618 1 10 C-1.56687367 6.1496895 -0.83288724 4.41430237 0 0 Z " fill="#A9917B" transform="translate(618,661)"/>
</svg>
