<?xml version="1.0" encoding="UTF-8"?>
<svg version="1.1" xmlns="http://www.w3.org/2000/svg" width="721" height="720">
<path d="M0 0 C237.93 0 475.86 0 721 0 C721 237.6 721 475.2 721 720 C483.07 720 245.14 720 0 720 C0 482.4 0 244.8 0 0 Z " fill="#FCF7E4" transform="translate(0,0)"/>
<path d="M0 0 C102.96 0 205.92 0 312 0 C312 136.29 312 272.58 312 413 C282.02906526 423.37455433 282.02906526 423.37455433 268.6875 425.9375 C267.32585543 426.21525002 265.9645276 426.49455719 264.60351562 426.77539062 C243.95234059 430.98495885 224.02277875 432.35724434 203 432 C201.69804688 431.98324219 200.39609375 431.96648437 199.0546875 431.94921875 C154.70001663 430.30122142 103.47237757 412.3569225 72.4296875 379.4609375 C70.84271859 377.77509261 70.84271859 377.77509261 68.125 375.75 C63.35716913 371.88247762 59.80033709 366.77645107 56 362 C55.3503125 361.23945313 54.700625 360.47890625 54.03125 359.6953125 C28.56504335 329.53246938 15.87719872 289.07383171 16 250 C15.99742187 249.25830566 15.99484375 248.51661133 15.9921875 247.75244141 C16.15972252 201.87925876 36.12687905 158.17785927 59.06054688 119.50976562 C68.44059127 103.61085238 74.65436486 89.424012 71.421875 70.640625 C65.27937116 49.53274816 44.48207195 36.15436694 27.3125 24.375 C6.65254835 10.20012002 6.65254835 10.20012002 0 2 C0 1.34 0 0.68 0 0 Z " fill="#F2E5D3" transform="translate(409,0)"/>
<path d="M0 0 C31.4439775 2.85854341 53.60149848 19.49992527 76.93359375 39.390625 C106.21516088 64.34598858 133.85664566 82.00293914 172.75 87 C174.04695801 87.16806152 175.34391602 87.33612305 176.68017578 87.50927734 C190.12412038 89.18790693 203.62592861 90.10520727 217.14355469 90.9609375 C231.41759594 91.87185709 245.71275774 92.79175955 259.625 96.3125 C260.50978027 96.53196289 261.39456055 96.75142578 262.30615234 96.97753906 C273.67676257 99.85883562 284.36817442 103.53698117 295 108.5 C295.78971191 108.86770508 296.57942383 109.23541016 297.39306641 109.61425781 C301.68294472 111.67931522 305.51294861 113.9499457 309.32226562 116.80200195 C311.51624306 118.36862699 313.87088305 119.61583136 316.22265625 120.92724609 C345.79034499 138.77345822 369.38972861 172.01697733 380.95703125 204.11328125 C381.88111121 206.67094075 382.91491696 209.13316898 384 211.625 C387.12772503 219.51998334 389.14810437 227.72741627 391 236 C391.30284912 237.35182373 391.30284912 237.35182373 391.61181641 238.73095703 C394.78138604 253.66355624 395.37149049 268.35578023 395.375 283.5625 C395.37690338 284.45011017 395.37880676 285.33772034 395.38076782 286.25222778 C395.37680203 302.58054368 393.99570996 318.12663167 390 334 C389.65986828 335.44463462 389.32280917 336.88999496 388.98828125 338.3359375 C388.72700439 339.46418945 388.72700439 339.46418945 388.46044922 340.61523438 C388.12207017 342.07743627 387.78384384 343.53967352 387.44580078 345.00195312 C387.28708496 345.67935547 387.12836914 346.35675781 386.96484375 347.0546875 C386.8268335 347.64749512 386.68882324 348.24030273 386.54663086 348.85107422 C385.76624141 351.91895627 384.8696522 354.95621732 384 358 C257.28 358 130.56 358 0 358 C0 239.86 0 121.72 0 0 Z " fill="#E7DDCC" transform="translate(0,362)"/>
<path d="M0 0 C7.32183781 0 13.92343669 0.16274264 21.0625 1.25 C21.9702417 1.38567383 22.8779834 1.52134766 23.81323242 1.66113281 C48.45420563 5.47356663 72.46267383 12.27818168 95 23 C95.75361816 23.35819824 96.50723633 23.71639648 97.28369141 24.08544922 C111.73532658 31.07920843 125.18304383 39.95588514 136.875 50.99609375 C138.87505666 52.88217659 140.94398998 54.62474661 143.0625 56.375 C148.02382845 60.70869052 151.96709594 65.81582248 156 71 C156.74378906 71.928125 157.48757812 72.85625 158.25390625 73.8125 C171.0636872 90.20901962 179.78010844 108.9253703 185 129 C185.27585938 129.88558594 185.55171875 130.77117187 185.8359375 131.68359375 C191.55164385 150.27378718 190.85851075 171.08390028 191.875 190.39471436 C192.07831633 194.22565871 192.28985804 198.05614283 192.5 201.88671875 C193.84803018 226.92006051 194.9108991 251.95067922 196 277 C131.32 277 66.64 277 0 277 C0 185.59 0 94.18 0 0 Z " fill="#CDAA92" transform="translate(0,443)"/>
<path d="M0 0 C59.73 0 119.46 0 181 0 C181 83.16 181 166.32 181 252 C169.23829886 250.69314432 158.2495471 249.28096635 146.875 246.4375 C146.16899658 246.26326508 145.46299316 246.08903015 144.7355957 245.90951538 C109.50297365 237.15218564 77.13366847 221.50299171 51 196 C50.23816406 195.30003906 49.47632813 194.60007813 48.69140625 193.87890625 C30.89646761 177.09900867 19.08660358 154.46805255 11.25 131.5625 C10.82738892 130.34904907 10.82738892 130.34904907 10.39624023 129.11108398 C6.1145772 116.120434 4.56113921 102.82765019 3.8671875 89.23046875 C3.78508837 87.7742258 3.7020685 86.31803451 3.61819458 84.8618927 C3.4022727 81.07060399 3.19874045 77.27875449 2.99804688 73.4866333 C2.79418683 69.6775043 2.57817741 65.86906634 2.36328125 62.06054688 C2.03647887 56.24573146 1.71855811 50.43051402 1.40917969 44.61474609 C1.13291632 39.42466874 0.844073 34.23585367 0.52471924 29.04824829 C-0.0162237 19.28975399 0 9.83965522 0 0 Z " fill="#D6B799" transform="translate(540,0)"/>
<path d="M0 0 C7.32183781 0 13.92343669 0.16274264 21.0625 1.25 C21.9702417 1.38567383 22.8779834 1.52134766 23.81323242 1.66113281 C48.45420563 5.47356663 72.46267383 12.27818168 95 23 C95.75361816 23.35819824 96.50723633 23.71639648 97.28369141 24.08544922 C111.73532658 31.07920843 125.18304383 39.95588514 136.875 50.99609375 C138.87505666 52.88217659 140.94398998 54.62474661 143.0625 56.375 C148.02382845 60.70869052 151.96709594 65.81582248 156 71 C156.74378906 71.928125 157.48757812 72.85625 158.25390625 73.8125 C171.0636872 90.20901962 179.78010844 108.9253703 185 129 C185.27585938 129.88558594 185.55171875 130.77117187 185.8359375 131.68359375 C191.54587028 150.2550088 190.85912894 171.04297631 191.87257385 190.33507156 C192.00082814 192.76569462 192.13110697 195.19620075 192.26208496 197.62667847 C193.68735951 224.07707056 194.95175286 250.53175971 196 277 C184.78 277 173.56 277 162 277 C158.37319981 262.49279923 159.56150491 245.77242704 159 230.875 C158.71194856 223.30689837 158.41938144 215.73899359 158.1217041 208.17126465 C158.0003043 205.00792911 157.88791132 201.8443607 157.77636719 198.68066406 C157.2533692 184.26822837 157.2533692 184.26822837 155.25 170 C155.0737207 169.0497998 154.89744141 168.09959961 154.71582031 167.12060547 C147.6612681 130.83213661 125.91441592 100.55015147 95.59375 79.9609375 C82.89966439 71.61615481 69.49996371 65.43246703 55 61 C53.55657227 60.55696533 53.55657227 60.55696533 52.08398438 60.10498047 C46.94256123 58.540583 41.79209151 57.00667449 36.62890625 55.515625 C35.78400635 55.27102539 34.93910645 55.02642578 34.06860352 54.77441406 C22.80215039 51.93113382 11.54259821 50.6489426 0 49 C0 32.83 0 16.66 0 0 Z " fill="#AD8B73" transform="translate(0,443)"/>
<path d="M0 0 C11.22 0 22.44 0 34 0 C34.18175781 4.66511719 34.36351562 9.33023437 34.55078125 14.13671875 C34.67265195 17.14003203 34.79516464 20.14329296 34.91992188 23.14648438 C35.11671293 27.88511595 35.31146547 32.62375249 35.49194336 37.36303711 C36.29170544 69.29527919 36.29170544 69.29527919 43.1875 100.3125 C43.48793213 101.2185498 43.78836426 102.12459961 44.09790039 103.05810547 C56.18460809 138.28897715 82.2602654 165.1170154 115 182 C134.76675688 191.58095462 155.12158594 196.78413564 176.68774414 200.52270508 C179 201 179 201 181 202 C181 218.5 181 235 181 252 C169.23829886 250.69314432 158.2495471 249.28096635 146.875 246.4375 C146.16899658 246.26326508 145.46299316 246.08903015 144.7355957 245.90951538 C109.50297365 237.15218564 77.13366847 221.50299171 51 196 C50.23816406 195.30003906 49.47632813 194.60007813 48.69140625 193.87890625 C30.89646761 177.09900867 19.08660358 154.46805255 11.25 131.5625 C10.82738892 130.34904907 10.82738892 130.34904907 10.39624023 129.11108398 C6.1145772 116.120434 4.56113921 102.82765019 3.8671875 89.23046875 C3.78508837 87.7742258 3.7020685 86.31803451 3.61819458 84.8618927 C3.4022727 81.07060399 3.19874045 77.27875449 2.99804688 73.4866333 C2.79418683 69.67750425 2.57816456 65.8690671 2.36328125 62.06054688 C1.96272344 54.92951311 1.57692589 47.7977721 1.1968689 40.6656189 C1.02362916 37.43996534 0.8451509 34.21468086 0.66333008 30.98950195 C0.23162174 23.26156436 -0.15443644 15.55550073 -0.0625 7.8125 C-0.041875 5.234375 -0.02125 2.65625 0 0 Z " fill="#AD8B73" transform="translate(540,0)"/>
<path d="M0 0 C29.19754631 4.86625772 55.59316041 16.30810055 73.75 40.75 C80.05956539 50.33806506 85.24407736 60.84417616 88 72 C88.33128906 73.01835938 88.66257812 74.03671875 89.00390625 75.0859375 C94.22674904 93.35857918 92.39423723 115.82711703 93 134 C62.31 134 31.62 134 0 134 C0 89.78 0 45.56 0 0 Z " fill="#AD8B73" transform="translate(0,586)"/>
<path d="M0 0 C31.65421814 3.51713535 64.87547927 13.66302719 87 38 C87.804375 38.78375 88.60875 39.5675 89.4375 40.375 C90.7059375 41.674375 90.7059375 41.674375 92 43 C92.58394531 43.5878125 93.16789062 44.175625 93.76953125 44.78125 C118.63903292 71.07326754 122.02735467 106.50215651 123.1875 140.9375 C123.26926381 143.07099894 123.35194376 145.20446297 123.43554688 147.33789062 C123.5138678 149.42184334 123.5913708 151.50582699 123.66796875 153.58984375 C123.70230515 154.51522446 123.73664154 155.44060516 123.77201843 156.39402771 C124.03527594 164.27546573 124 172.09929267 124 180 C113.77 180 103.54 180 93 180 C91.87565814 171.0052651 91.87565814 171.0052651 91.73461914 167.6862793 C91.70110855 166.94157883 91.66759796 166.19687836 91.6330719 165.42961121 C91.60075974 164.6523317 91.56844757 163.87505219 91.53515625 163.07421875 C91.45662483 161.37303557 91.37784087 159.67186402 91.29882812 157.97070312 C91.17963555 155.33157888 91.06270871 152.69240676 90.95043945 150.05297852 C90.54143312 140.55533688 90.09641364 131.30626766 88 122 C87.71769531 120.44732422 87.71769531 120.44732422 87.4296875 118.86328125 C82.47474128 96.07750744 66.30545542 75.4476272 47 62.9375 C32.22106339 54.21690345 16.58895435 50.0727373 0 46 C0 30.82 0 15.64 0 0 Z " fill="#E2C9A4" transform="translate(0,540)"/>
<path d="M0 0 C5.53969185 1.29358223 9.2300762 6.27210895 12.56640625 10.57421875 C15.59967927 16.05744306 16.48484172 20.75855327 16.50390625 27.01171875 C16.52066406 28.28015625 16.53742188 29.54859375 16.5546875 30.85546875 C16.16703959 34.75695742 15.12569241 37.13784878 13.19140625 40.51171875 C12.41420422 42.71379116 12.01595784 43.89543778 12.65625 46.14453125 C17.2980103 66.67669727 7.51425501 86.42022349 -0.80859375 104.51171875 C11.17609495 98.12912534 21.58781264 89.91710917 29.19140625 78.51171875 C29.44617972 75.63683177 29.60636862 72.82880899 29.69140625 69.94921875 C30.66027762 47.9079418 30.66027762 47.9079418 38.75390625 40.01171875 C43.66552816 37.86846555 47.91678606 37.64506727 53.19140625 38.51171875 C57.30858718 40.15859112 60.21655894 42.44547951 63.19140625 45.69921875 C65.23489612 51.44653401 65.09013639 57.24878146 62.56640625 62.82421875 C58.20755399 70.33532056 51.08883568 73.58713593 43.19140625 76.51171875 C41.38080534 76.83504034 39.56826527 77.14769955 37.75390625 77.44921875 C31.48640857 79.00277696 28.72913323 83.04426823 24.88964844 87.89208984 C18.42392053 95.9690522 10.36309174 102.58903974 1.06640625 107.19921875 C-3.61901466 109.62420554 -5.02559157 112.68662755 -6.80859375 117.51171875 C-7.13214844 118.29933594 -7.45570313 119.08695313 -7.7890625 119.8984375 C-8.82453242 122.42561888 -9.81799776 124.96664906 -10.80859375 127.51171875 C-11.55682622 129.3874248 -12.3067684 131.26244992 -13.05859375 133.13671875 C-13.39375 133.97460938 -13.72890625 134.8125 -14.07421875 135.67578125 C-14.43773437 136.58457031 -14.43773437 136.58457031 -14.80859375 137.51171875 C-13.75671875 136.89296875 -12.70484375 136.27421875 -11.62109375 135.63671875 C-7.79054744 133.65328641 -4.52494172 133.19478872 -0.24609375 132.82421875 C4.61009001 132.17448713 7.01035443 131.46499353 10.06640625 127.57421875 C11.15216756 125.91474652 12.19201722 124.22459565 13.19140625 122.51171875 C22.02999778 108.14655779 22.02999778 108.14655779 29.69140625 105.13671875 C34.60817464 104.25872439 37.5858138 104.54089541 41.87890625 107.13671875 C45.21700119 110.56503247 47.11768965 113.86713578 47.25390625 118.75390625 C46.86973942 123.50797083 46.0211287 127.58661987 43.19140625 131.51171875 C40.64808677 133.18335823 38.0088293 134.37649335 35.19140625 135.51171875 C34.44503906 135.87265625 33.69867187 136.23359375 32.9296875 136.60546875 C29.35687677 137.7879111 25.97304448 137.80315762 22.25390625 137.76171875 C21.56361328 137.76945313 20.87332031 137.7771875 20.16210938 137.78515625 C15.76281247 137.76847645 12.30218176 136.99712503 8.19140625 135.51171875 C0.53428639 134.4339572 -5.83794127 136.46066639 -12.80859375 139.51171875 C-13.89333984 139.82689453 -13.89333984 139.82689453 -15 140.1484375 C-18.01806322 142.42339228 -18.18759312 145.91962905 -18.87109375 149.44921875 C-19.2000767 151.00167315 -19.53080675 152.55375835 -19.86328125 154.10546875 C-20.02151367 154.86214844 -20.17974609 155.61882812 -20.34277344 156.3984375 C-20.94245501 159.11900545 -21.70562841 161.77852033 -22.49609375 164.44921875 C-24.97254112 173.38596361 -24.95116844 182.29188894 -24.80859375 191.51171875 C-24.46828125 191.06441406 -24.12796875 190.61710938 -23.77734375 190.15625 C-19.37306939 184.66262055 -14.54324807 180.75660352 -7.80859375 178.51171875 C-6.4358456 176.29471122 -6.4358456 176.29471122 -5.18359375 173.57421875 C-0.77390464 165.18052834 5.94129057 155.92688205 15.19140625 152.51171875 C20.33476428 151.62382957 24.00534675 151.918689 28.69140625 154.26171875 C32.45534677 157.64926522 32.45534677 157.64926522 33.19140625 160.51171875 C32.95348464 166.93560224 30.86727689 170.79512834 26.39453125 175.3359375 C18.51148225 182.62317466 10.94064849 184.53761057 0.33984375 184.7421875 C-2.0952846 184.48096464 -3.65277911 183.6339844 -5.80859375 182.51171875 C-11.63187088 182.51171875 -15.75980228 185.59554665 -19.80859375 189.51171875 C-23.97912156 193.96929611 -25.37273006 197.41591468 -25.24804688 203.52539062 C-25.20615234 204.32525391 -25.16425781 205.12511719 -25.12109375 205.94921875 C-25.08725586 207.18961914 -25.08725586 207.18961914 -25.05273438 208.45507812 C-24.99436222 210.47475452 -24.90470007 212.49348596 -24.80859375 214.51171875 C-26.12859375 214.51171875 -27.44859375 214.51171875 -28.80859375 214.51171875 C-30.265625 212.7890625 -30.265625 212.7890625 -31.62109375 210.44921875 C-34.52922943 205.79474029 -37.70774775 202.14389663 -41.80859375 198.51171875 C-42.36417969 198.00253906 -42.91976562 197.49335937 -43.4921875 196.96875 C-47.56322562 193.61225899 -50.2686466 193.2431392 -55.44921875 193.50390625 C-62.85220818 193.52841946 -69.71548415 189.77574509 -76.24609375 186.63671875 C-77.29422241 186.14558594 -77.29422241 186.14558594 -78.36352539 185.64453125 C-82.5036774 183.57823874 -84.89113327 181.92187786 -86.80859375 177.51171875 C-87.38261883 173.65755039 -87.01941525 171.90903619 -85.18359375 168.44921875 C-80.39965805 162.53224564 -74.96870116 158.10601981 -67.30859375 157.01171875 C-62.84507785 157.64936388 -60.55855999 159.07062343 -57.80859375 162.51171875 C-53.51472876 169.05724465 -51.5869839 175.12345587 -50.62109375 182.76171875 C-50.04515578 186.95160618 -49.40710905 189.86996097 -46.4296875 193.0625 C-43.62627227 195.02679775 -40.74650377 196.75798724 -37.80859375 198.51171875 C-34.31718589 201.55202435 -31.37635095 204.66008294 -28.80859375 208.51171875 C-28.8243042 207.51712646 -28.8243042 207.51712646 -28.84033203 206.50244141 C-28.88293524 203.38054271 -28.91094703 200.25882745 -28.93359375 197.13671875 C-28.94237549 195.99944336 -28.95115723 194.86216797 -28.96020508 193.69042969 C-28.96163645 186.9133482 -28.53053929 180.45128093 -27.49609375 173.76171875 C-26.29974444 165.52286595 -28.2416762 159.89440856 -31.80859375 152.51171875 C-32.21749616 150.97346683 -32.61532891 149.43217605 -32.99609375 147.88671875 C-34.3904846 144.43422279 -34.3904846 144.43422279 -36.828125 143.6796875 C-38.54327966 143.2610277 -40.26239691 142.85839468 -41.984375 142.46875 C-49.98656421 139.75708146 -59.45880535 130.90985749 -63.96484375 123.6484375 C-65.63698587 119.41389242 -65.45865585 114.96560954 -64.80859375 110.51171875 C-63.15364629 107.3371727 -61.05508097 105.13496236 -57.80859375 103.51171875 C-51.97076903 102.67774379 -48.62773663 104.2058357 -44.0234375 107.54296875 C-37.8761815 113.0071963 -34.00602086 119.39582386 -32.80859375 127.51171875 C-32.6420805 130.61996607 -32.6215505 133.48396533 -33.1796875 136.55078125 C-33.65151 138.92086259 -33.65151 138.92086259 -33.80859375 142.51171875 C-32.47903456 144.18139773 -31.14517859 145.8476585 -29.80859375 147.51171875 C-28.578125 150.80859375 -28.578125 150.80859375 -27.62109375 154.26171875 C-26.79375483 158.19120323 -26.79375483 158.19120323 -24.80859375 161.51171875 C-24.54046875 160.38378906 -24.27234375 159.25585938 -23.99609375 158.09375 C-21.47374188 147.86146419 -18.37388189 138.15707885 -14.22460938 128.45629883 C-12.14299639 123.68564139 -12.14299639 123.68564139 -12.48828125 118.65625 C-12.92398438 117.94855469 -13.3596875 117.24085938 -13.80859375 116.51171875 C-16.13437333 110.91426838 -16.82069393 106.54691258 -16.68359375 100.44921875 C-16.89806114 95.82570093 -17.10463811 94.16345515 -20.546875 90.9765625 C-23.81133886 88.85063372 -27.30741885 87.21194408 -30.80859375 85.51171875 C-36.73072281 81.7861612 -43.06107438 77.67654817 -44.80859375 70.51171875 C-45.27163078 66.26721266 -45.10127623 64.07540353 -43.12109375 60.26171875 C-40.13887737 56.71529928 -37.60190196 54.80854218 -32.9765625 54.04296875 C-27.07212591 53.98106116 -22.20407168 54.1543986 -17.3671875 57.8046875 C-10.89097203 64.8976854 -12.37510446 76.64021783 -12.67871094 85.59863281 C-12.8389143 87.9583199 -13.32103557 90.19962643 -13.80859375 92.51171875 C-14.37617099 101.35282578 -13.68446353 109.12376523 -10.80859375 117.51171875 C-10.14859375 117.51171875 -9.48859375 117.51171875 -8.80859375 117.51171875 C-8.69161133 116.79943115 -8.57462891 116.08714355 -8.45410156 115.35327148 C-7.77262206 112.35336984 -6.75294564 109.84559841 -5.48046875 107.046875 C-5.01237793 106.00571533 -4.54428711 104.96455566 -4.06201172 103.8918457 C-3.31781982 102.24962036 -3.31781982 102.24962036 -2.55859375 100.57421875 C3.87980424 86.15266372 9.38654863 73.42999054 9.31640625 57.44921875 C9.32027344 56.56427734 9.32414063 55.67933594 9.328125 54.76757812 C9.48187918 48.52560084 9.48187918 48.52560084 8.19140625 42.51171875 C6.11672137 40.64398244 6.11672137 40.64398244 3.50390625 39.13671875 C-4.37943673 33.91484626 -9.64707238 27.53887125 -12.80859375 18.51171875 C-13.68904723 13.31321517 -13.43287987 9.71723677 -10.99609375 5.01171875 C-7.65692035 1.19552058 -5.12449418 -0.12268586 0 0 Z " fill="#C6B197" transform="translate(646.80859375,505.48828125)"/>
<path d="M0 0 C2.6875 -0.3125 2.6875 -0.3125 6 0 C8.875 2.375 8.875 2.375 11 5 C11 5.66 11 6.32 11 7 C11.57580811 7.25056152 12.15161621 7.50112305 12.74487305 7.75927734 C15.30638593 9.16856699 17.0218495 10.77908763 19.08203125 12.8515625 C19.84966797 13.62113281 20.61730469 14.39070312 21.40820312 15.18359375 C22.59833008 16.39208984 22.59833008 16.39208984 23.8125 17.625 C24.98522461 18.79869141 24.98522461 18.79869141 26.18164062 19.99609375 C33.11123376 26.97778909 39.63219006 33.98569855 45 42.25 C45.42152344 42.89259766 45.84304687 43.53519531 46.27734375 44.19726562 C59.8577835 65.06326043 59.8577835 65.06326043 59 76 C57 78 57 78 54.375 78.4375 C46.38449065 77.40169323 42.15295273 72.3260379 37.4375 66.25 C36.09588745 64.48489048 34.76810813 62.7108559 33.45019531 60.92797852 C31.88622008 58.848734 30.26155718 56.82493219 28.63671875 54.79296875 C24.48252072 49.4642291 20.92933478 43.80217272 17.375 38.0625 C16.73304687 37.04220703 16.09109375 36.02191406 15.4296875 34.97070312 C11.58680356 28.80082696 8.12310961 22.56278376 5 16 C4.67 15.34 4.34 14.68 4 14 C6.94697677 33.23721777 6.94697677 33.23721777 12 52 C12.21011719 52.82886719 12.42023437 53.65773437 12.63671875 54.51171875 C13.24340243 56.95534594 13.24340243 56.95534594 15 60 C16.92666046 60.74420361 18.85738769 61.48043003 20.81152344 62.14916992 C24.37422926 63.53426918 27.37400718 65.64107108 30.5 67.8125 C31.15798584 68.26262451 31.81597168 68.71274902 32.49389648 69.17651367 C34.33547374 70.44232715 36.1681211 71.72021633 38 73 C39.11568359 73.75796875 39.11568359 73.75796875 40.25390625 74.53125 C44.86605886 77.79860649 49.05202314 81.60020413 53.25 85.375 C53.85336182 85.90456299 54.45672363 86.43412598 55.07836914 86.97973633 C61.58956678 92.95673776 65.74877982 100.89185641 66.1875 109.8125 C66 113 66 113 65 114 C58.82011081 114.95075218 54.07813665 112.20486846 49 109 C42.08187918 103.66160755 36.25327512 97.18970635 30.4453125 90.69921875 C28.35658225 88.39360756 26.22233152 86.1758176 24 84 C24.23187012 84.57443848 24.46374023 85.14887695 24.70263672 85.74072266 C25.76194136 88.36807346 26.81849143 90.99652367 27.875 93.625 C28.23980469 94.52863281 28.60460938 95.43226562 28.98046875 96.36328125 C30.79047667 100.87184644 32.53669606 105.363637 34 110 C35.134375 110.061875 36.26875 110.12375 37.4375 110.1875 C49.53604964 111.70793076 64.96699109 123.57939837 72.34570312 132.97827148 C75.92913649 137.89639736 78.15178422 141.52688858 78.0625 147.6875 C78.05347656 148.49574219 78.04445313 149.30398437 78.03515625 150.13671875 C78.02355469 150.75160156 78.01195313 151.36648437 78 152 C70.575516 152.618707 65.97156919 150.4699309 60.26953125 145.73046875 C57.80689581 143.52486437 55.38591988 141.28813628 53 139 C54.79815153 142.18134502 56.59150398 145.34765687 58.53125 148.4453125 C64.57127598 158.12711885 65.28272582 165.67526038 65 177 C62.76171875 177.76171875 62.76171875 177.76171875 60 178 C57.83203125 176.26953125 57.83203125 176.26953125 55.8125 173.8125 C55.13832031 173.01457031 54.46414062 172.21664062 53.76953125 171.39453125 C52.22840114 169.30907262 51.05712296 167.35819738 50 165 C49.86722656 165.62648437 49.73445313 166.25296875 49.59765625 166.8984375 C49.42105469 167.71570313 49.24445313 168.53296875 49.0625 169.375 C48.88847656 170.18710938 48.71445313 170.99921875 48.53515625 171.8359375 C48 174 48 174 47 176 C44.69921875 176.23828125 44.69921875 176.23828125 42 176 C40.26953125 174.41796875 40.26953125 174.41796875 38.8125 172.1875 C38.32394531 171.47980469 37.83539063 170.77210938 37.33203125 170.04296875 C33.58708999 161.48780968 33.49081173 151.57246657 32.875 142.375 C32.78790771 141.15039062 32.70081543 139.92578125 32.61108398 138.6640625 C32.0614686 130.45069685 31.88280175 122.34782113 32.22265625 114.125 C31.97973124 110.71552611 31.33079373 109.43424932 29 107 C29.24363281 108.44632813 29.24363281 108.44632813 29.4921875 109.921875 C30.12593106 114.3692768 30.14705871 118.7647287 30.125 123.25 C30.13080078 124.45269531 30.13080078 124.45269531 30.13671875 125.6796875 C30.13110903 129.03429935 30.06784228 131.79647317 29 135 C26.41548051 134.63316498 25.2546817 134.28008474 23.47265625 132.3203125 C11.50947453 113.69619027 10.02050169 95.14480814 9.39453125 73.54882812 C9.35714844 72.39189453 9.31976563 71.23496094 9.28125 70.04296875 C9.25095703 69.00164795 9.22066406 67.96032715 9.18945312 66.88745117 C9.01128152 64.17194146 8.60244024 61.65031025 8 59 C8.66 59 9.32 59 10 59 C9.65066406 57.77023438 9.30132812 56.54046875 8.94140625 55.2734375 C8.48160443 53.64067185 8.02197829 52.00785672 7.5625 50.375 C7.33240234 49.56675781 7.10230469 48.75851563 6.86523438 47.92578125 C5.6612128 43.6331826 4.62287748 39.42457793 4 35 C4.0721875 35.76957031 4.144375 36.53914063 4.21875 37.33203125 C7.90939829 83.00380389 7.90939829 83.00380389 0 97 C-2.36328125 96.8046875 -2.36328125 96.8046875 -5 96 C-6.29296875 93.8828125 -6.29296875 93.8828125 -7.1875 91.125 C-7.49042969 90.24070312 -7.79335938 89.35640625 -8.10546875 88.4453125 C-10.61081047 78.79591774 -11.41926197 69.52675352 -11.4375 59.5625 C-11.43956451 58.8974646 -11.44162903 58.2324292 -11.4437561 57.54724121 C-11.43368633 39.24638317 -8.04022172 21.56739599 -3 4 C-2.34 4 -1.68 4 -1 4 C-0.67 2.68 -0.34 1.36 0 0 Z " fill="#AD6C30" transform="translate(25,0)"/>
<path d="M0 0 C25.74 0 51.48 0 78 0 C78 35.31 78 70.62 78 107 C50.74481506 100.18620376 27.89503049 86.22430226 13 62 C1.07783867 41.69506898 0 23.8566526 0 0 Z " fill="#AD8B73" transform="translate(643,0)"/>
<path d="M0 0 C0.66 0.33 1.32 0.66 2 1 C2 1.66 2 2.32 2 3 C3.134375 3.061875 4.26875 3.12375 5.4375 3.1875 C17.53604964 4.70793076 32.96699109 16.57939837 40.34570312 25.97827148 C43.92913649 30.89639736 46.15178422 34.52688858 46.0625 40.6875 C46.05347656 41.49574219 46.04445312 42.30398437 46.03515625 43.13671875 C46.02355469 43.75160156 46.01195312 44.36648437 46 45 C38.575516 45.618707 33.97156919 43.4699309 28.26953125 38.73046875 C25.80689581 36.52486437 23.38591988 34.28813628 21 32 C22.79815153 35.18134502 24.59150398 38.34765687 26.53125 41.4453125 C32.57127598 51.12711885 33.28272582 58.67526038 33 70 C30.76171875 70.76171875 30.76171875 70.76171875 28 71 C25.83203125 69.26953125 25.83203125 69.26953125 23.8125 66.8125 C23.13832031 66.01457031 22.46414062 65.21664062 21.76953125 64.39453125 C20.22840114 62.30907262 19.05712296 60.35819738 18 58 C17.80083984 58.93972656 17.80083984 58.93972656 17.59765625 59.8984375 C17.42105469 60.71570313 17.24445313 61.53296875 17.0625 62.375 C16.80146484 63.59316406 16.80146484 63.59316406 16.53515625 64.8359375 C16 67 16 67 15 69 C12.69921875 69.23828125 12.69921875 69.23828125 10 69 C8.26953125 67.41796875 8.26953125 67.41796875 6.8125 65.1875 C6.32394531 64.47980469 5.83539063 63.77210938 5.33203125 63.04296875 C1.58745895 54.48865256 1.48888034 44.57186023 0.875 35.375 C0.79008301 34.15039062 0.70516602 32.92578125 0.61767578 31.6640625 C0.01187882 22.41986896 -0.20835844 13.26037521 0 4 C0 2.68 0 1.36 0 0 Z " fill="#AC6C2F" transform="translate(57,107)"/>
<path d="M0 0 C2.6875 -0.3125 2.6875 -0.3125 6 0 C8.875 2.375 8.875 2.375 11 5 C11 5.66 11 6.32 11 7 C11.57580811 7.25056152 12.15161621 7.50112305 12.74487305 7.75927734 C15.30638593 9.16856699 17.0218495 10.77908763 19.08203125 12.8515625 C19.84966797 13.62113281 20.61730469 14.39070312 21.40820312 15.18359375 C22.59833008 16.39208984 22.59833008 16.39208984 23.8125 17.625 C24.98522461 18.79869141 24.98522461 18.79869141 26.18164062 19.99609375 C33.11123376 26.97778909 39.63219006 33.98569855 45 42.25 C45.42152344 42.89259766 45.84304687 43.53519531 46.27734375 44.19726562 C59.8577835 65.06326043 59.8577835 65.06326043 59 76 C57 78 57 78 54.375 78.4375 C46.38449065 77.40169323 42.15295273 72.3260379 37.4375 66.25 C36.09588745 64.48489048 34.76810813 62.7108559 33.45019531 60.92797852 C31.88622008 58.848734 30.26155718 56.82493219 28.63671875 54.79296875 C24.48252072 49.4642291 20.92933478 43.80217272 17.375 38.0625 C16.73304687 37.04220703 16.09109375 36.02191406 15.4296875 34.97070312 C11.58680356 28.80082696 8.12310961 22.56278376 5 16 C4.67 15.34 4.34 14.68 4 14 C4.33 18.29 4.66 22.58 5 27 C4.34 27 3.68 27 3 27 C2.01 21.39 1.02 15.78 0 10 C-0.66 10 -1.32 10 -2 10 C-2.04390869 10.57395508 -2.08781738 11.14791016 -2.13305664 11.73925781 C-2.75285638 18.85532039 -4.04617123 25.74992445 -5.4375 32.75 C-7.76459715 44.80344739 -9.17075592 56.75936723 -10 69 C-10.33 69 -10.66 69 -11 69 C-11.91488359 46.60364967 -9.21463244 25.53919761 -3 4 C-2.34 4 -1.68 4 -1 4 C-0.67 2.68 -0.34 1.36 0 0 Z " fill="#AD6C30" transform="translate(25,0)"/>
<path d="M0 0 C0.33 0 0.66 0 1 0 C4.98715489 65.41691095 4.98715489 65.41691095 0 84 C-1.98 84.495 -1.98 84.495 -4 85 C-16.42504084 62.97379124 -8.09363067 31.22553318 -3 8 C-2.66240974 6.33419037 -2.32743382 4.66783572 -2 3 C-1.34 3 -0.68 3 0 3 C0 2.01 0 1.02 0 0 Z " fill="#F6ECD7" transform="translate(25,7)"/>
<path d="M0 0 C7.2551617 -1.20642584 14.87112534 -2.22438058 22 0 C31.05582378 6.91107505 36.47403572 20.42210716 40 31 C40.12781786 33.67394964 40.04391871 36.32095857 40 39 C32.5165377 39 26.33573985 32.28119647 21.15625 27.22265625 C4.43915355 9.32863778 4.43915355 9.32863778 0 0 Z " fill="#AD6D30" transform="translate(46,0)"/>
<path d="M0 0 C2.62870789 2.29233088 2.97116319 2.77060449 3.43359375 6.44921875 C3.45823314 7.86176489 3.45792711 9.27488667 3.4375 10.6875 C3.42702637 11.44788574 3.41655273 12.20827148 3.40576172 12.99169922 C2.88341412 29.68260766 -4.13208492 44.07111488 -11 59 C-0.6860905 53.50720061 7.76833593 46.90099269 15.34375 37.9453125 C16.82540928 36.20506174 18.36005296 34.58994866 20 33 C20 38.70448338 14.78763066 43.00877593 11 47 C5.278059 52.42367796 -0.55657301 56.88688218 -7.5 60.625 C-12.95119212 63.67000185 -15.05589202 66.15711025 -17 72 C-17.6624435 73.62672618 -18.32932097 75.25165189 -19 76.875 C-19.66823799 78.5827193 -20.3348498 80.29107565 -21 82 C-21.74823247 83.87570605 -22.49817465 85.75073117 -23.25 87.625 C-23.75273438 88.88183594 -23.75273438 88.88183594 -24.265625 90.1640625 C-24.50796875 90.76992188 -24.7503125 91.37578125 -25 92 C-24.5153125 91.72285156 -24.030625 91.44570313 -23.53125 91.16015625 C-18.5861627 88.48790715 -14.60455867 87.40032562 -9 87 C-11.46068727 89.90808496 -13.85971095 90.86343094 -17.4375 92.0625 C-19.29710941 92.69249013 -21.1517514 93.33742031 -23 94 C-24.09828125 94.309375 -24.09828125 94.309375 -25.21875 94.625 C-28.19866733 96.92528706 -28.38076445 100.4170252 -29.0625 103.9375 C-29.39148295 105.4899544 -29.722213 107.0420396 -30.0546875 108.59375 C-30.21291992 109.35042969 -30.37115234 110.10710937 -30.53417969 110.88671875 C-31.13386126 113.6072867 -31.89703466 116.26680158 -32.6875 118.9375 C-35.3353724 128.52164683 -35.12817245 138.11648022 -35 148 C-35.66 148.33 -36.32 148.66 -37 149 C-37.19740158 146.04201328 -37.38541906 143.08423146 -37.5625 140.125 C-37.61567383 139.2489209 -37.66884766 138.3728418 -37.72363281 137.47021484 C-37.95818592 133.05881212 -38.0292916 128.99485942 -37.25 124.625 C-36.47514515 119.23881388 -38.62841964 114.94336104 -40.7734375 110.078125 C-41.99108406 107.02237503 -42.58123834 104.25270687 -43 101 C-42.01 100.505 -42.01 100.505 -41 100 C-40.65066406 101.07121094 -40.30132813 102.14242187 -39.94140625 103.24609375 C-39.48192855 104.64328104 -39.02228454 106.04041365 -38.5625 107.4375 C-38.33240234 108.14455078 -38.10230469 108.85160156 -37.86523438 109.58007812 C-36.92578853 113.06306795 -36.92578853 113.06306795 -35 116 C-34.731875 114.87207031 -34.46375 113.74414062 -34.1875 112.58203125 C-31.66514813 102.34974544 -28.56528814 92.6453601 -24.41601562 82.94458008 C-22.32776521 78.1634174 -22.32776521 78.1634174 -22.69921875 73.125 C-23.12847656 72.42375 -23.55773437 71.7225 -24 71 C-25.25 67.375 -25.25 67.375 -26 64 C-25.34 63.01 -24.68 62.02 -24 61 C-23.01 64.63 -22.02 68.26 -21 72 C-20.34 72 -19.68 72 -19 72 C-18.88301758 71.2877124 -18.76603516 70.5754248 -18.64550781 69.84155273 C-17.96402831 66.84165109 -16.94435189 64.33387966 -15.671875 61.53515625 C-14.96973877 59.97341675 -14.96973877 59.97341675 -14.25341797 58.38012695 C-13.75729004 57.28531006 -13.26116211 56.19049316 -12.75 55.0625 C-6.06260016 40.0831985 -1.08690106 27.12617454 -0.4375 10.625 C-0.37272461 9.09166016 -0.37272461 9.09166016 -0.30664062 7.52734375 C-0.20112208 5.01834712 -0.09900787 2.50926057 0 0 Z " fill="#CDB89E" transform="translate(657,551)"/>
<path d="M0 0 C10.57495706 10.22657045 15.57419629 30.65169247 16.07397461 45.14526367 C16.09798198 47.55614827 16.08749293 49.96414397 16.0625 52.375 C16.05798828 53.20644531 16.05347656 54.03789063 16.04882812 54.89453125 C16.03713164 56.92971897 16.01919935 58.96486923 16 61 C12.13779239 59.77581812 10.81936661 57.44575603 9.00585938 53.9519043 C0.22930756 35.83002899 -0.56836634 19.91905424 0 0 Z " fill="#F5ECD6" transform="translate(37,69)"/>
<path d="M0 0 C4.55686027 1.51190492 6.54861046 5.24924098 9.0625 9.0625 C9.54219238 9.77349854 10.02188477 10.48449707 10.51611328 11.21704102 C12.96210103 14.86126729 15.35324087 18.5378334 17.70703125 22.2421875 C18.59610166 23.64078555 19.48542437 25.03922324 20.375 26.4375 C20.81577881 27.13125732 21.25655762 27.82501465 21.71069336 28.53979492 C25.75360902 34.80880448 30.22530468 40.70624076 34.84912109 46.55639648 C35.37586426 47.22614502 35.90260742 47.89589355 36.4453125 48.5859375 C36.91469238 49.1742334 37.38407227 49.7625293 37.86767578 50.36865234 C39 52 39 52 40 55 C41.91666667 56.16666667 41.91666667 56.16666667 44 57 C44.99 57.495 44.99 57.495 46 58 C48.3329866 58.04022391 50.66706666 58.04320247 53 58 C53.625 60.875 53.625 60.875 54 64 C52 66 52 66 49.375 66.4375 C41.38449065 65.40169323 37.15295273 60.3260379 32.4375 54.25 C31.09588745 52.48489048 29.76810813 50.7108559 28.45019531 48.92797852 C26.88622008 46.848734 25.26155718 44.82493219 23.63671875 42.79296875 C19.48252072 37.4642291 15.92933478 31.80217272 12.375 26.0625 C11.73304687 25.04220703 11.09109375 24.02191406 10.4296875 22.97070312 C0 6.22549789 0 6.22549789 0 0 Z " fill="#AC6B2E" transform="translate(30,12)"/>
<path d="M0 0 C2.87990761 2.79263768 5.59731901 5.65021333 8.21875 8.6875 C11.86942552 12.87775733 15.63050618 16.95185704 19.4375 21 C20.05431641 21.66 20.67113281 22.32 21.30664062 23 C25.05308343 27.00117677 25.05308343 27.00117677 28.95556641 30.84838867 C34.79307666 36.3808901 39.1082112 42.5987562 43.5 49.3125 C44.22703125 50.39595703 44.9540625 51.47941406 45.703125 52.59570312 C51 60.60573308 51 60.60573308 51 64 C45.03774982 63.6492794 42.97410653 62.33762945 39 58 C28.6315458 46.32081668 20.26581528 33.08318855 11.86621094 19.96362305 C8.80389358 15.19141903 5.6156821 10.54033585 2.2421875 5.98046875 C0.98004266 3.96818122 0.42803277 2.32286077 0 0 Z " fill="#F5EAD4" transform="translate(30,7)"/>
<path d="M0 0 C4.95 0 9.9 0 15 0 C13.69193358 13.88238237 11.34519216 30.41705568 3 42 C1.515 42.495 1.515 42.495 0 43 C0 28.81 0 14.62 0 0 Z " fill="#F6ECD6" transform="translate(0,0)"/>
<path d="M0 0 C3.83642578 1.68066406 3.83642578 1.68066406 5.30859375 4.5546875 C7.75252854 11.742731 9.9007926 18.96568037 11.8125 26.3125 C12.14109009 27.54685791 12.14109009 27.54685791 12.47631836 28.80615234 C14.08022732 35.24635431 15.51155551 41.9139075 12.5 48.0625 C12.005 48.701875 11.51 49.34125 11 50 C7.35815298 48.82940631 5.60431337 46.66858601 3.87890625 43.3125 C-1.11818087 30.16460855 0.36813029 13.83032594 0 0 Z " fill="#F5EBD4" transform="translate(59,122)"/>
<path d="M0 0 C0.99 0.495 0.99 0.495 2 1 C2.02578125 2.258125 2.0515625 3.51625 2.078125 4.8125 C2.59512285 22.53316721 5.70099201 37.68623325 15 53 C15.99 53.66 16.98 54.32 18 55 C17.73087034 43.73692357 16.48383991 33.18603984 13.9375 22.20703125 C13.08977554 18.48128225 12.31039984 14.81694809 12 11 C12.66 10.34 13.32 9.68 14 9 C15.31391118 12.27026822 16.62588516 15.54131018 17.9375 18.8125 C18.31068359 19.74126953 18.68386719 20.67003906 19.06835938 21.62695312 C19.42607422 22.51962891 19.78378906 23.41230469 20.15234375 24.33203125 C20.48226318 25.15421143 20.81218262 25.9763916 21.15209961 26.82348633 C21.81716342 28.53066857 22.42062266 30.26186797 23 32 C21.515 32.495 21.515 32.495 20 33 C19.505 32.505 19.505 32.505 19 32 C19.24363281 33.44632813 19.24363281 33.44632813 19.4921875 34.921875 C20.12593106 39.3692768 20.14705871 43.7647287 20.125 48.25 C20.13080078 49.45269531 20.13080078 49.45269531 20.13671875 50.6796875 C20.13110903 54.03429935 20.06784228 56.79647317 19 60 C16.41548051 59.63316498 15.2546817 59.28008474 13.47265625 57.3203125 C1.81407897 39.17039441 -0.23489494 21.03614658 0 0 Z " fill="#B07238" transform="translate(35,75)"/>
<path d="M0 0 C4.11389867 2.98695302 8.09807917 6.03056325 11.875 9.4375 C14.77879033 12.03383018 17.76853084 14.26342289 21 16.4375 C25.15216889 19.2754503 28.58221231 22.37865897 32.04296875 26.015625 C34.66809006 28.67742465 37.52527518 31.01450758 40.43359375 33.359375 C42.20967344 35.2196081 42.61242816 36.48897116 43 39 C41.62134409 38.59559427 40.2472278 38.17570763 38.875 37.75 C38.10929687 37.51796875 37.34359375 37.2859375 36.5546875 37.046875 C29.42816127 34.1265248 24.51775514 28.8311642 19.1875 23.4375 C18.39158447 22.63626709 17.59566895 21.83503418 16.77563477 21.00952148 C1.99743494 5.99230481 1.99743494 5.99230481 0 0 Z " fill="#F3E8D1" transform="translate(43,68)"/>
<path d="M0 0 C3.1256885 -0.49744667 5.88720252 -0.64101985 9 0 C11.69486544 2.22472615 13.32725015 4.96780125 15.125 7.9375 C16.14564802 9.50357454 17.16777288 11.06868764 18.19140625 12.6328125 C18.6723877 13.38852539 19.15336914 14.14423828 19.64892578 14.92285156 C21.77097281 18.18529755 24.1744273 21.1984546 26.59765625 24.23828125 C28.10420213 26.13090574 29.55620375 28.05922937 31 30 C30.67 30.66 30.34 31.32 30 32 C18.2181405 23.33768722 7.31220417 12.78486011 0 0 Z " fill="#F3E8D1" transform="translate(51,0)"/>
<path d="M0 0 C2.40928735 0.96371494 3.76007009 1.65210163 5.25 3.8125 C6.11081611 6.32321365 6.14647297 8.36348649 6 11 C5.34 11 4.68 11 4 11 C6.19873097 20.97143781 9.71650721 31.46040043 18 38 C20.17346568 38.86119134 20.17346568 38.86119134 22 39 C22 40.65 22 42.3 22 44 C19.76171875 44.76171875 19.76171875 44.76171875 17 45 C14.83203125 43.26953125 14.83203125 43.26953125 12.8125 40.8125 C12.13832031 40.01457031 11.46414062 39.21664062 10.76953125 38.39453125 C9 36 9 36 7.88671875 33.76171875 C7.12645964 31.81411644 7.12645964 31.81411644 5 31 C4.4375 29.30102539 4.4375 29.30102539 4 27.09765625 C3.83588623 26.29384521 3.67177246 25.49003418 3.50268555 24.66186523 C3.33679932 23.80407471 3.17091309 22.94628418 3 22.0625 C2.82702393 21.19890869 2.65404785 20.33531738 2.47583008 19.44555664 C2.13381975 17.73550502 1.79495918 16.02482001 1.45947266 14.31347656 C0.90343815 11.51380441 0.29229851 8.72697885 -0.3125 5.9375 C-1 2 -1 2 0 0 Z " fill="#AC6C2F" transform="translate(68,133)"/>
<path d="M0 0 C0.66 0.66 1.32 1.32 2 2 C2.99 2 3.98 2 5 2 C5.53625 3.134375 6.0725 4.26875 6.625 5.4375 C8.22508276 8.66044249 10.02152998 11.60029413 12.0625 14.5625 C15.57444443 19.72817017 18.59014018 24.50845804 18 31 C12.5700717 30.13263727 10.11653342 26.22758457 7 22 C2.53869174 15.027746 0.93976918 8.16336809 0 0 Z " fill="#F4E9D1" transform="translate(71,141)"/>
<path d="M0 0 C1.32 0 2.64 0 4 0 C3.67 1.98 3.34 3.96 3 6 C2.34 6 1.68 6 1 6 C0.95609131 6.57395508 0.91218262 7.14791016 0.86694336 7.73925781 C0.24714362 14.85532039 -1.04617123 21.74992445 -2.4375 28.75 C-4.76459715 40.80344739 -6.17075592 52.75936723 -7 65 C-7.33 65 -7.66 65 -8 65 C-8.91488359 42.60364967 -6.21463244 21.53919761 0 0 Z " fill="#AF7136" transform="translate(22,4)"/>
<path d="M0 0 C3.46393999 1.98901148 6.54478119 4.14812228 9.625 6.6875 C14.17883461 10.38791733 18.86715422 13.84389501 23.65234375 17.23828125 C25.63897084 18.72907795 27.39478686 20.10870927 29 22 C29 22.66 29 23.32 29 24 C21.12026157 23.07297195 16.04775564 17.36949336 10.46484375 12.21875 C8.79005072 10.71117085 7.06677125 9.25612201 5.3046875 7.8515625 C3.06782854 6.05449276 1.53094352 4.41727924 0 2 C0 1.34 0 0.68 0 0 Z " fill="#F1E4CB" transform="translate(67,120)"/>
<path d="M0 0 C0.33 0 0.66 0 1 0 C1 4.95 1 9.9 1 15 C1.66 15 2.32 15 3 15 C3.495 22.92 3.495 22.92 4 31 C2.68 31 1.36 31 0 31 C-1.45703125 29.27734375 -1.45703125 29.27734375 -2.8125 26.9375 C-6.61782654 20.84706531 -11.03447668 16.26963104 -16.9375 12.1875 C-18.4534375 11.1046875 -18.4534375 11.1046875 -20 10 C-20 9.34 -20 8.68 -20 8 C-15.38172678 9.44853588 -12.32252558 12.10801815 -8.875 15.375 C-8.08802734 16.09816406 -8.08802734 16.09816406 -7.28515625 16.8359375 C-4.50336909 19.42757718 -2.29817857 21.9357619 0 25 C0 16.75 0 8.5 0 0 Z " fill="#CCB69D" transform="translate(618,689)"/>
<path d="M0 0 C1.73693665 2.60540498 2.80682023 4.78501252 3.9453125 7.66796875 C4.29980469 8.56064453 4.65429688 9.45332031 5.01953125 10.37304688 C5.38433594 11.30181641 5.74914063 12.23058594 6.125 13.1875 C6.49753906 14.12787109 6.87007812 15.06824219 7.25390625 16.03710938 C8.17238701 18.35686205 9.08762171 20.6778419 10 23 C9.01 23.33 8.02 23.66 7 24 C6.67 23.67 6.34 23.34 6 23 C6.08378906 23.66644531 6.16757812 24.33289063 6.25390625 25.01953125 C7.00810446 31.84550241 6.8559797 38.19166912 6 45 C5.67 45 5.34 45 5 45 C4.97421875 43.99324219 4.9484375 42.98648438 4.921875 41.94921875 C4.56151298 32.09379178 3.14978214 22.84700683 0.9375 13.2421875 C-1.425 2.85 -1.425 2.85 0 0 Z " fill="#B57A43" transform="translate(48,84)"/>
<path d="M0 0 C0.66 0 1.32 0 2 0 C0.69193358 13.88238237 -1.65480784 30.41705568 -10 42 C-11.485 42.495 -11.485 42.495 -13 43 C-13 41.68 -13 40.36 -13 39 C-12.34 39 -11.68 39 -11 39 C-10.81824219 38.45472656 -10.63648438 37.90945312 -10.44921875 37.34765625 C-8 30 -8 30 -7.31958008 28.06420898 C-5.25750654 22.10141845 -3.72798118 16.08265544 -2.3125 9.9375 C-2.08755859 8.97650391 -1.86261719 8.01550781 -1.63085938 7.02539062 C-1.08347361 4.68444298 -0.53992759 2.34267692 0 0 Z " fill="#B3763D" transform="translate(13,0)"/>
<path d="M0 0 C2.62870789 2.29233088 2.97116319 2.77060449 3.43359375 6.44921875 C3.4564831 7.86179433 3.45640444 9.27486547 3.4375 10.6875 C3.43266602 11.80306274 3.43266602 11.80306274 3.42773438 12.94116211 C3.23199561 20.94704637 1.29994673 28.37115883 -1 36 C-3 33 -3 33 -2.79296875 31.07421875 C-2.59316406 30.28660156 -2.39335938 29.49898437 -2.1875 28.6875 C-0.21305415 19.28659008 -0.31157245 9.57135355 0 0 Z " fill="#D3C0A7" transform="translate(657,551)"/>
<path d="M0 0 C5.25542299 6.92760304 5.25542299 6.92760304 5.1953125 11.88671875 C5.18886719 12.82451172 5.18242188 13.76230469 5.17578125 14.72851562 C5.15902344 15.70498047 5.14226563 16.68144531 5.125 17.6875 C5.11597656 18.67556641 5.10695313 19.66363281 5.09765625 20.68164062 C5.0740843 23.12133765 5.04118022 25.56054697 5 28 C2 26 2 26 1.47583008 23.38623047 C1.40775146 22.30744629 1.33967285 21.22866211 1.26953125 20.1171875 C1.18896484 18.95058594 1.10839844 17.78398438 1.02539062 16.58203125 C0.95513672 15.35871094 0.88488281 14.13539062 0.8125 12.875 C0.73064453 11.64394531 0.64878906 10.41289063 0.56445312 9.14453125 C0.36364283 6.09693968 0.17606795 3.0491049 0 0 Z " fill="#F0E2C9" transform="translate(53,104)"/>
<path d="M0 0 C0.99 0.33 1.98 0.66 3 1 C3.99 6.28 4.98 11.56 6 17 C5.01 17.33 4.02 17.66 3 18 C2.49490792 15.75113762 1.99610821 13.50086131 1.5 11.25 C1.2215625 9.99703125 0.943125 8.7440625 0.65625 7.453125 C0 4 0 4 0 0 Z " fill="#B2753B" transform="translate(29,31)"/>
<path d="M0 0 C0.33 0 0.66 0 1 0 C1 4.95 1 9.9 1 15 C1.66 15 2.32 15 3 15 C3 19.29 3 23.58 3 28 C0.58664145 25.58664145 0.0433088 23.93537699 -0.11352539 20.5480957 C-0.10828857 19.60023193 -0.10305176 18.65236816 -0.09765625 17.67578125 C-0.09443359 16.64775391 -0.09121094 15.61972656 -0.08789062 14.56054688 C-0.07951172 13.48869141 -0.07113281 12.41683594 -0.0625 11.3125 C-0.05798828 10.22904297 -0.05347656 9.14558594 -0.04882812 8.02929688 C-0.03703743 5.35280915 -0.02058063 2.67643223 0 0 Z " fill="#D7C4AC" transform="translate(618,689)"/>
<path d="M0 0 C0.33 0 0.66 0 1 0 C1.02505615 0.65484375 1.0501123 1.3096875 1.07592773 1.984375 C1.19292655 4.98973236 1.31517635 7.99485485 1.4375 11 C1.47681641 12.02996094 1.51613281 13.05992188 1.55664062 14.12109375 C1.79185439 19.80241075 2.19481377 25.37046268 3 31 C2.34 31 1.68 31 1 31 C-1.8537349 20.71712052 -0.7608783 10.49806409 0 0 Z " fill="#C1915F" transform="translate(15,54)"/>
<path d="M0 0 C2.40928735 0.96371494 3.76007009 1.65210163 5.25 3.8125 C6.11081611 6.32321365 6.14647297 8.36348649 6 11 C5.34 10.67 4.68 10.34 4 10 C4 9.34 4 8.68 4 8 C3.01 8 2.02 8 1 8 C0.67 8.66 0.34 9.32 0 10 C-1.125 2.25 -1.125 2.25 0 0 Z " fill="#B8814B" transform="translate(68,133)"/>
<path d="M0 0 C0.66 0 1.32 0 2 0 C2 7.92 2 15.84 2 24 C1.34 24.33 0.68 24.66 0 25 C-0.19572967 21.95866211 -0.38183916 18.91723937 -0.5625 15.875 C-0.61857422 15.0190625 -0.67464844 14.163125 -0.73242188 13.28125 C-0.99798352 8.67818141 -1.00515346 4.54180454 0 0 Z " fill="#D8C7AE" transform="translate(620,675)"/>
<path d="M0 0 C1 3 1 3 0.109375 5.4453125 C-0.33921875 6.32960938 -0.7878125 7.21390625 -1.25 8.125 C-1.90742188 9.45917969 -1.90742188 9.45917969 -2.578125 10.8203125 C-4 13 -4 13 -7 14 C-7 12.68 -7 11.36 -7 10 C-6.34 10 -5.68 10 -5 10 C-4.80664062 9.36191406 -4.61328125 8.72382812 -4.4140625 8.06640625 C-4.15367188 7.24011719 -3.89328125 6.41382813 -3.625 5.5625 C-3.36976562 4.73878906 -3.11453125 3.91507813 -2.8515625 3.06640625 C-2 1 -2 1 0 0 Z " fill="#AD6D31" transform="translate(7,29)"/>
<path d="M0 0 C0.33 0 0.66 0 1 0 C1.99 6.27 2.98 12.54 4 19 C3.34 19 2.68 19 2 19 C1.67 19.66 1.34 20.32 1 21 C0.14626761 13.97195301 -0.12109311 7.07721931 0 0 Z " fill="#E9D5B8" transform="translate(28,29)"/>
<path d="M0 0 C0.99 0.33 1.98 0.66 3 1 C1.515 7.435 1.515 7.435 0 14 C-2 11 -2 11 -1.7578125 8.30078125 C-1.54898438 7.31464844 -1.34015625 6.32851563 -1.125 5.3125 C-0.92132812 4.31863281 -0.71765625 3.32476563 -0.5078125 2.30078125 C-0.34023438 1.54152344 -0.17265625 0.78226563 0 0 Z " fill="#D4C0A7" transform="translate(625,654)"/>
<path d="M0 0 C0.66 0 1.32 0 2 0 C1.85831863 1.43791516 1.71148957 2.8753237 1.5625 4.3125 C1.48128906 5.11300781 1.40007813 5.91351563 1.31640625 6.73828125 C1 9 1 9 0 12 C-0.66 12 -1.32 12 -2 12 C-1.85831863 10.56208484 -1.71148957 9.1246763 -1.5625 7.6875 C-1.48128906 6.88699219 -1.40007813 6.08648437 -1.31640625 5.26171875 C-1 3 -1 3 0 0 Z " fill="#AE6E32" transform="translate(13,0)"/>
<path d="M0 0 C3.63559661 3.43361902 6.36113346 6.7973607 9 11 C8.34 11.66 7.68 12.32 7 13 C5.82786955 11.21190303 4.66244474 9.41940875 3.5 7.625 C2.8503125 6.62726562 2.200625 5.62953125 1.53125 4.6015625 C0 2 0 2 0 0 Z " fill="#E9D5B9" transform="translate(30,7)"/>
<path d="M0 0 C0.33 0 0.66 0 1 0 C1.33 3.63 1.66 7.26 2 11 C2.66 10.67 3.32 10.34 4 10 C3.34 11.98 2.68 13.96 2 16 C1.34 16 0.68 16 0 16 C0 10.72 0 5.44 0 0 Z " fill="#C6B095" transform="translate(619,688)"/>
<path d="M0 0 C0.66 0 1.32 0 2 0 C2.66 3.63 3.32 7.26 4 11 C3.01 10.67 2.02 10.34 1 10 C0.67 6.7 0.34 3.4 0 0 Z " fill="#B07238" transform="translate(69,141)"/>
<path d="M0 0 C0.99 0 1.98 0 3 0 C2.48041715 4.37934119 1.94324258 8.68803391 1 13 C0.67 13 0.34 13 0 13 C0 8.71 0 4.42 0 0 Z " fill="#AE6E32" transform="translate(0,0)"/>
<path d="M0 0 C0.66 0 1.32 0 2 0 C2.33 3.63 2.66 7.26 3 11 C2.34 11 1.68 11 1 11 C-0.17571451 7.32589215 -0.07366746 3.83070817 0 0 Z " fill="#A96627" transform="translate(27,16)"/>
<path d="M0 0 C1.32 0 2.64 0 4 0 C3.67 1.98 3.34 3.96 3 6 C1.68 6.33 0.36 6.66 -1 7 C-0.67 4.69 -0.34 2.38 0 0 Z " fill="#B77F48" transform="translate(22,4)"/>
<path d="M0 0 C2.79908133 2.79908133 2.72362983 5.13081763 3 9 C2.34 9.66 1.68 10.32 1 11 C0.63890458 9.35567294 0.28629924 7.7094792 -0.0625 6.0625 C-0.25972656 5.14597656 -0.45695313 4.22945312 -0.66015625 3.28515625 C-0.77230469 2.53105469 -0.88445313 1.77695312 -1 1 C-0.67 0.67 -0.34 0.34 0 0 Z " fill="#D1BCA3" transform="translate(615,651)"/>
<path d="M0 0 C2.45823172 3.68734758 3.01242616 6.69699971 4 11 C3.34 11 2.68 11 2 11 C1.67 11.66 1.34 12.32 1 13 C0.67 8.71 0.34 4.42 0 0 Z " fill="#DDC19F" transform="translate(28,9)"/>
</svg>
