<?xml version="1.0" encoding="UTF-8"?>
<svg version="1.1" xmlns="http://www.w3.org/2000/svg" width="24" height="24">
<path d="M0 0 C3.36335594 1.45745424 5.54534005 3.31117854 8.109375 5.9140625 C8.86347656 6.67460937 9.61757812 7.43515625 10.39453125 8.21875 C11.17183594 9.0128125 11.94914063 9.806875 12.75 10.625 C13.54277344 11.42679688 14.33554688 12.22859375 15.15234375 13.0546875 C17.10614493 15.03202846 19.05512103 17.01388909 21 19 C20.67 19.99 20.34 20.98 20 22 C19.01 21.34 18.02 20.68 17 20 C14.41114829 19.70008931 11.90850918 19.49134775 9.3125 19.375 C8.61060547 19.33632813 7.90871094 19.29765625 7.18554688 19.2578125 C5.45745345 19.1637666 3.72876325 19.0808032 2 19 C1.95101563 17.95199219 1.90203125 16.90398438 1.8515625 15.82421875 C1.77651857 14.44528646 1.70097143 13.0663815 1.625 11.6875 C1.5940625 10.99720703 1.563125 10.30691406 1.53125 9.59570312 C1.31875081 5.93009211 1.08066139 4.12099208 -1 1 C-0.67 0.67 -0.34 0.34 0 0 Z M4 7 C4 10.3 4 13.6 4 17 C7.3 17 10.6 17 14 17 C13.67 16.34 13.34 15.68 13 15 C10.36 15 7.72 15 5 15 C5.99 13.35 6.98 11.7 8 10 C6.68 9.01 5.36 8.02 4 7 Z " fill="#99A0A5" transform="translate(1,2)"/>
<path d="M0 0 C5.28 0 10.56 0 16 0 C16 5.28 16 10.56 16 16 C15.34 15.67 14.68 15.34 14 15 C14 10.71 14 6.42 14 2 C9.71 2 5.42 2 1 2 C0.67 1.34 0.34 0.68 0 0 Z " fill="#99A0A6" transform="translate(5,3)"/>
</svg>
